G04 #@! TF.GenerationSoftware,KiCad,Pcbnew,(6.0.4)*
G04 #@! TF.CreationDate,2022-04-30T09:59:48+01:00*
G04 #@! TF.ProjectId,ANI_mirror_mask,414e495f-6d69-4727-926f-725f6d61736b,1.0*
G04 #@! TF.SameCoordinates,Original*
G04 #@! TF.FileFunction,Copper,L2,Bot*
G04 #@! TF.FilePolarity,Positive*
%FSLAX46Y46*%
G04 Gerber Fmt 4.6, Leading zero omitted, Abs format (unit mm)*
G04 Created by KiCad (PCBNEW (6.0.4)) date 2022-04-30 09:59:48*
%MOMM*%
%LPD*%
G01*
G04 APERTURE LIST*
G04 #@! TA.AperFunction,ComponentPad*
%ADD10R,1.700000X1.700000*%
G04 #@! TD*
G04 #@! TA.AperFunction,ComponentPad*
%ADD11O,1.700000X1.700000*%
G04 #@! TD*
G04 #@! TA.AperFunction,Conductor*
%ADD12C,0.250000*%
G04 #@! TD*
G04 APERTURE END LIST*
D10*
X133547000Y-102188000D03*
D11*
X133547000Y-104728000D03*
X133547000Y-107268000D03*
X133547000Y-109808000D03*
X133547000Y-112348000D03*
X133547000Y-114888000D03*
X133547000Y-117428000D03*
X166517000Y-102188000D03*
X166517000Y-104728000D03*
X166517000Y-107268000D03*
X166517000Y-109808000D03*
X166517000Y-112348000D03*
X166517000Y-114888000D03*
D10*
X166517000Y-117428000D03*
X125902000Y-93293000D03*
D11*
X125902000Y-95833000D03*
X128442000Y-93293000D03*
X128442000Y-95833000D03*
X130982000Y-93293000D03*
X130982000Y-95833000D03*
X133522000Y-93293000D03*
X133522000Y-95833000D03*
X136062000Y-93293000D03*
X136062000Y-95833000D03*
X138602000Y-93293000D03*
X138602000Y-95833000D03*
X141142000Y-93293000D03*
X141142000Y-95833000D03*
X143682000Y-93293000D03*
X143682000Y-95833000D03*
X146222000Y-93293000D03*
X146222000Y-95833000D03*
X148762000Y-93293000D03*
X148762000Y-95833000D03*
X151302000Y-93293000D03*
X151302000Y-95833000D03*
X153842000Y-93293000D03*
X153842000Y-95833000D03*
X156382000Y-93293000D03*
X156382000Y-95833000D03*
X158922000Y-93293000D03*
X158922000Y-95833000D03*
X161462000Y-93293000D03*
X161462000Y-95833000D03*
X164002000Y-93293000D03*
X164002000Y-95833000D03*
X166542000Y-93293000D03*
X166542000Y-95833000D03*
X169082000Y-93293000D03*
X169082000Y-95833000D03*
X171622000Y-93293000D03*
X171622000Y-95833000D03*
X174162000Y-93293000D03*
X174162000Y-95833000D03*
D12*
X131217000Y-112348000D02*
X133757000Y-114888000D01*
X131192000Y-112348000D02*
X131217000Y-112348000D01*
X131192000Y-99553489D02*
X131192000Y-112348000D01*
X132372489Y-98373000D02*
X131192000Y-99553489D01*
X138602000Y-95833000D02*
X136062000Y-98373000D01*
X136062000Y-98373000D02*
X132372489Y-98373000D01*
X152476511Y-98683489D02*
X143892000Y-107268000D01*
X152476511Y-94467511D02*
X151302000Y-93293000D01*
X152476511Y-98683489D02*
X152476511Y-94467511D01*
X149936511Y-94467511D02*
X148762000Y-93293000D01*
X149936511Y-98683489D02*
X149936511Y-94467511D01*
X138352292Y-109808000D02*
X141341813Y-106818480D01*
X141801520Y-106818480D02*
X149936511Y-98683489D01*
X133757000Y-109808000D02*
X138352292Y-109808000D01*
X141341813Y-106818480D02*
X141801520Y-106818480D01*
X169292000Y-102188000D02*
X169292000Y-109388000D01*
X166752000Y-99648000D02*
X169292000Y-102188000D01*
X156592000Y-99648000D02*
X166752000Y-99648000D01*
X155207489Y-94658489D02*
X155207489Y-98263489D01*
X169292000Y-109388000D02*
X166332000Y-112348000D01*
X153842000Y-93293000D02*
X155207489Y-94658489D01*
X155207489Y-98263489D02*
X156592000Y-99648000D01*
X171832000Y-102188000D02*
X171832000Y-109808000D01*
X171832000Y-109808000D02*
X166752000Y-114888000D01*
X166752000Y-97108000D02*
X171832000Y-102188000D01*
X157829538Y-97108000D02*
X166752000Y-97108000D01*
X156554538Y-95833000D02*
X157829538Y-97108000D01*
X156382000Y-95833000D02*
X156554538Y-95833000D01*
X133757000Y-112348000D02*
X136448010Y-112348000D01*
X166332000Y-107268000D02*
X141528010Y-107268000D01*
X136448010Y-112348000D02*
X141440005Y-107356005D01*
X141528010Y-107268000D02*
X141440005Y-107356005D01*
G04 #@! TA.AperFunction,Conductor*
G36*
X177613421Y-91596502D02*
G01*
X177659914Y-91650158D01*
X177670018Y-91720432D01*
X177640524Y-91785012D01*
X177606866Y-91812435D01*
X177366498Y-91947047D01*
X177366493Y-91947050D01*
X177363381Y-91948793D01*
X177360485Y-91950878D01*
X177360480Y-91950881D01*
X177225062Y-92048369D01*
X177077605Y-92154523D01*
X177074969Y-92156917D01*
X177074967Y-92156919D01*
X176897733Y-92317907D01*
X176816954Y-92391281D01*
X176795425Y-92415830D01*
X176620770Y-92614986D01*
X176584781Y-92656023D01*
X176384071Y-92945347D01*
X176382380Y-92948494D01*
X176382377Y-92948499D01*
X176333749Y-93039000D01*
X176217402Y-93255532D01*
X176086919Y-93582590D01*
X175994299Y-93922317D01*
X175993757Y-93925839D01*
X175941858Y-94263032D01*
X175940732Y-94270345D01*
X175940592Y-94273909D01*
X175928243Y-94588229D01*
X175926908Y-94622200D01*
X175953004Y-94973358D01*
X176018684Y-95319304D01*
X176123104Y-95655592D01*
X176124545Y-95658867D01*
X176186511Y-95799695D01*
X176264921Y-95977897D01*
X176442313Y-96282076D01*
X176652999Y-96564219D01*
X176655443Y-96566817D01*
X176655448Y-96566823D01*
X176884097Y-96809883D01*
X176894270Y-96820697D01*
X176960532Y-96876792D01*
X177086652Y-96983560D01*
X177163024Y-97048214D01*
X177165988Y-97050194D01*
X177165990Y-97050196D01*
X177448930Y-97239250D01*
X177455807Y-97243845D01*
X177458989Y-97245484D01*
X177458991Y-97245485D01*
X177765670Y-97403436D01*
X177765675Y-97403438D01*
X177768853Y-97405075D01*
X177772194Y-97406341D01*
X177772199Y-97406343D01*
X178003696Y-97494049D01*
X178098139Y-97529830D01*
X178101603Y-97530710D01*
X178101607Y-97530711D01*
X178435963Y-97615627D01*
X178435971Y-97615629D01*
X178439430Y-97616507D01*
X178605608Y-97639123D01*
X178785347Y-97663585D01*
X178785354Y-97663586D01*
X178788340Y-97663992D01*
X178903081Y-97668500D01*
X179121198Y-97668500D01*
X179262756Y-97660462D01*
X179379992Y-97653805D01*
X179379999Y-97653804D01*
X179383560Y-97653602D01*
X179530193Y-97628406D01*
X179727082Y-97594575D01*
X179727090Y-97594573D01*
X179730600Y-97593970D01*
X179734025Y-97592972D01*
X179734028Y-97592971D01*
X180065221Y-97496436D01*
X180068659Y-97495434D01*
X180393390Y-97359263D01*
X180596556Y-97245485D01*
X180697502Y-97188953D01*
X180697507Y-97188950D01*
X180700619Y-97187207D01*
X180703515Y-97185122D01*
X180703520Y-97185119D01*
X180877694Y-97059731D01*
X180986395Y-96981477D01*
X181018581Y-96952242D01*
X181244405Y-96747118D01*
X181244406Y-96747117D01*
X181247046Y-96744719D01*
X181427925Y-96538467D01*
X181476868Y-96482658D01*
X181476869Y-96482656D01*
X181479219Y-96479977D01*
X181498614Y-96452020D01*
X181583360Y-96329857D01*
X181679929Y-96190653D01*
X181786509Y-95992299D01*
X181836371Y-95941761D01*
X181905641Y-95926202D01*
X181972327Y-95950564D01*
X182015256Y-96007112D01*
X182023500Y-96051939D01*
X182023500Y-116076756D01*
X182003498Y-116144877D01*
X181949842Y-116191370D01*
X181879568Y-116201474D01*
X181814988Y-116171980D01*
X181788657Y-116140232D01*
X181691571Y-115973756D01*
X181621687Y-115853924D01*
X181411001Y-115571781D01*
X181408557Y-115569183D01*
X181408552Y-115569177D01*
X181172180Y-115317907D01*
X181172176Y-115317904D01*
X181169730Y-115315303D01*
X180979809Y-115154523D01*
X180903698Y-115090090D01*
X180903694Y-115090087D01*
X180900976Y-115087786D01*
X180706600Y-114957908D01*
X180611170Y-114894144D01*
X180611168Y-114894143D01*
X180608193Y-114892155D01*
X180600126Y-114888000D01*
X180298330Y-114732564D01*
X180298325Y-114732562D01*
X180295147Y-114730925D01*
X180291806Y-114729659D01*
X180291801Y-114729657D01*
X179969205Y-114607437D01*
X179969206Y-114607437D01*
X179965861Y-114606170D01*
X179962397Y-114605290D01*
X179962393Y-114605289D01*
X179628037Y-114520373D01*
X179628029Y-114520371D01*
X179624570Y-114519493D01*
X179452848Y-114496122D01*
X179278653Y-114472415D01*
X179278646Y-114472414D01*
X179275660Y-114472008D01*
X179160919Y-114467500D01*
X178942802Y-114467500D01*
X178801244Y-114475538D01*
X178684008Y-114482195D01*
X178684001Y-114482196D01*
X178680440Y-114482398D01*
X178542117Y-114506166D01*
X178336918Y-114541425D01*
X178336910Y-114541427D01*
X178333400Y-114542030D01*
X178329975Y-114543028D01*
X178329972Y-114543029D01*
X178116370Y-114605289D01*
X177995341Y-114640566D01*
X177992039Y-114641951D01*
X177992038Y-114641951D01*
X177923904Y-114670522D01*
X177670610Y-114776737D01*
X177540571Y-114849562D01*
X177366498Y-114947047D01*
X177366493Y-114947050D01*
X177363381Y-114948793D01*
X177360485Y-114950878D01*
X177360480Y-114950881D01*
X177213761Y-115056504D01*
X177077605Y-115154523D01*
X177074969Y-115156917D01*
X177074967Y-115156919D01*
X176897733Y-115317907D01*
X176816954Y-115391281D01*
X176814603Y-115393962D01*
X176646683Y-115585438D01*
X176584781Y-115656023D01*
X176384071Y-115945347D01*
X176382381Y-115948492D01*
X176382377Y-115948499D01*
X176283364Y-116132771D01*
X176217402Y-116255532D01*
X176086919Y-116582590D01*
X175994299Y-116922317D01*
X175993757Y-116925839D01*
X175956173Y-117170027D01*
X175940732Y-117270345D01*
X175940592Y-117273909D01*
X175931027Y-117517370D01*
X175926908Y-117622200D01*
X175953004Y-117973358D01*
X176018684Y-118319304D01*
X176019742Y-118322713D01*
X176019744Y-118322719D01*
X176037673Y-118380460D01*
X176123104Y-118655592D01*
X176124545Y-118658867D01*
X176157914Y-118734703D01*
X176264921Y-118977897D01*
X176442313Y-119282076D01*
X176652999Y-119564219D01*
X176655443Y-119566817D01*
X176655448Y-119566823D01*
X176891820Y-119818093D01*
X176894270Y-119820697D01*
X176896999Y-119823007D01*
X177086652Y-119983560D01*
X177163024Y-120048214D01*
X177165988Y-120050194D01*
X177165990Y-120050196D01*
X177367917Y-120185119D01*
X177455807Y-120243845D01*
X177458989Y-120245484D01*
X177458991Y-120245485D01*
X177606552Y-120321484D01*
X177657954Y-120370457D01*
X177674720Y-120439446D01*
X177651525Y-120506547D01*
X177595736Y-120550456D01*
X177548860Y-120559500D01*
X122518700Y-120559500D01*
X122450579Y-120539498D01*
X122404086Y-120485842D01*
X122393982Y-120415568D01*
X122423476Y-120350988D01*
X122457134Y-120323565D01*
X122697502Y-120188953D01*
X122697507Y-120188950D01*
X122700619Y-120187207D01*
X122703515Y-120185122D01*
X122703520Y-120185119D01*
X122850239Y-120079496D01*
X122986395Y-119981477D01*
X123160858Y-119823007D01*
X123244405Y-119747118D01*
X123244406Y-119747117D01*
X123247046Y-119744719D01*
X123479219Y-119479977D01*
X123679929Y-119190653D01*
X123846598Y-118880468D01*
X123977081Y-118553410D01*
X124069701Y-118213683D01*
X124095388Y-118046794D01*
X124122726Y-117869178D01*
X124122726Y-117869174D01*
X124123268Y-117865655D01*
X124129935Y-117695966D01*
X132215257Y-117695966D01*
X132245565Y-117830446D01*
X132248645Y-117840275D01*
X132328770Y-118037603D01*
X132333413Y-118046794D01*
X132444694Y-118228388D01*
X132450777Y-118236699D01*
X132590213Y-118397667D01*
X132597580Y-118404883D01*
X132761434Y-118540916D01*
X132769881Y-118546831D01*
X132953756Y-118654279D01*
X132963042Y-118658729D01*
X133162001Y-118734703D01*
X133171899Y-118737579D01*
X133275250Y-118758606D01*
X133289299Y-118757410D01*
X133293000Y-118747065D01*
X133293000Y-118746517D01*
X133801000Y-118746517D01*
X133805064Y-118760359D01*
X133818478Y-118762393D01*
X133825184Y-118761534D01*
X133835262Y-118759392D01*
X134039255Y-118698191D01*
X134048842Y-118694433D01*
X134240095Y-118600739D01*
X134248945Y-118595464D01*
X134422328Y-118471792D01*
X134430200Y-118465139D01*
X134581052Y-118314812D01*
X134587730Y-118306965D01*
X134712003Y-118134020D01*
X134717313Y-118125183D01*
X134811670Y-117934267D01*
X134815469Y-117924672D01*
X134877377Y-117720910D01*
X134879555Y-117710837D01*
X134880986Y-117699962D01*
X134878775Y-117685778D01*
X134865617Y-117682000D01*
X133819115Y-117682000D01*
X133803876Y-117686475D01*
X133802671Y-117687865D01*
X133801000Y-117695548D01*
X133801000Y-118746517D01*
X133293000Y-118746517D01*
X133293000Y-117700115D01*
X133288525Y-117684876D01*
X133287135Y-117683671D01*
X133279452Y-117682000D01*
X132230225Y-117682000D01*
X132216694Y-117685973D01*
X132215257Y-117695966D01*
X124129935Y-117695966D01*
X124132833Y-117622200D01*
X124136952Y-117517370D01*
X124136952Y-117517365D01*
X124137092Y-117513800D01*
X124110996Y-117162642D01*
X124045316Y-116816696D01*
X124036659Y-116788814D01*
X123970183Y-116574727D01*
X123940896Y-116480408D01*
X123849435Y-116272546D01*
X123800522Y-116161382D01*
X123800520Y-116161379D01*
X123799079Y-116158103D01*
X123621687Y-115853924D01*
X123411001Y-115571781D01*
X123408557Y-115569183D01*
X123408552Y-115569177D01*
X123172180Y-115317907D01*
X123172176Y-115317904D01*
X123169730Y-115315303D01*
X122979809Y-115154523D01*
X122903698Y-115090090D01*
X122903694Y-115090087D01*
X122900976Y-115087786D01*
X122706600Y-114957908D01*
X122611170Y-114894144D01*
X122611168Y-114894143D01*
X122608193Y-114892155D01*
X122600126Y-114888000D01*
X122298330Y-114732564D01*
X122298325Y-114732562D01*
X122295147Y-114730925D01*
X122291806Y-114729659D01*
X122291801Y-114729657D01*
X121969205Y-114607437D01*
X121969206Y-114607437D01*
X121965861Y-114606170D01*
X121962397Y-114605290D01*
X121962393Y-114605289D01*
X121628037Y-114520373D01*
X121628029Y-114520371D01*
X121624570Y-114519493D01*
X121452848Y-114496122D01*
X121278653Y-114472415D01*
X121278646Y-114472414D01*
X121275660Y-114472008D01*
X121160919Y-114467500D01*
X120942802Y-114467500D01*
X120801244Y-114475538D01*
X120684008Y-114482195D01*
X120684001Y-114482196D01*
X120680440Y-114482398D01*
X120542117Y-114506166D01*
X120336918Y-114541425D01*
X120336910Y-114541427D01*
X120333400Y-114542030D01*
X120329975Y-114543028D01*
X120329972Y-114543029D01*
X120116370Y-114605289D01*
X119995341Y-114640566D01*
X119992039Y-114641951D01*
X119992038Y-114641951D01*
X119923904Y-114670522D01*
X119670610Y-114776737D01*
X119540571Y-114849562D01*
X119366498Y-114947047D01*
X119366493Y-114947050D01*
X119363381Y-114948793D01*
X119360485Y-114950878D01*
X119360480Y-114950881D01*
X119213761Y-115056504D01*
X119077605Y-115154523D01*
X119074969Y-115156917D01*
X119074967Y-115156919D01*
X118897733Y-115317907D01*
X118816954Y-115391281D01*
X118814603Y-115393962D01*
X118646683Y-115585438D01*
X118584781Y-115656023D01*
X118384071Y-115945347D01*
X118382382Y-115948490D01*
X118382381Y-115948492D01*
X118277492Y-116143700D01*
X118227629Y-116194239D01*
X118158359Y-116209798D01*
X118091673Y-116185436D01*
X118048744Y-116128888D01*
X118040500Y-116084061D01*
X118040500Y-96059244D01*
X118060502Y-95991123D01*
X118114158Y-95944630D01*
X118184432Y-95934526D01*
X118249012Y-95964020D01*
X118275343Y-95995768D01*
X118442313Y-96282076D01*
X118652999Y-96564219D01*
X118655443Y-96566817D01*
X118655448Y-96566823D01*
X118884097Y-96809883D01*
X118894270Y-96820697D01*
X118960532Y-96876792D01*
X119086652Y-96983560D01*
X119163024Y-97048214D01*
X119165988Y-97050194D01*
X119165990Y-97050196D01*
X119448930Y-97239250D01*
X119455807Y-97243845D01*
X119458989Y-97245484D01*
X119458991Y-97245485D01*
X119765670Y-97403436D01*
X119765675Y-97403438D01*
X119768853Y-97405075D01*
X119772194Y-97406341D01*
X119772199Y-97406343D01*
X120003696Y-97494049D01*
X120098139Y-97529830D01*
X120101603Y-97530710D01*
X120101607Y-97530711D01*
X120435963Y-97615627D01*
X120435971Y-97615629D01*
X120439430Y-97616507D01*
X120605608Y-97639123D01*
X120785347Y-97663585D01*
X120785354Y-97663586D01*
X120788340Y-97663992D01*
X120903081Y-97668500D01*
X121121198Y-97668500D01*
X121262756Y-97660462D01*
X121379992Y-97653805D01*
X121379999Y-97653804D01*
X121383560Y-97653602D01*
X121530193Y-97628406D01*
X121727082Y-97594575D01*
X121727090Y-97594573D01*
X121730600Y-97593970D01*
X121734025Y-97592972D01*
X121734028Y-97592971D01*
X122065221Y-97496436D01*
X122068659Y-97495434D01*
X122393390Y-97359263D01*
X122596556Y-97245485D01*
X122697502Y-97188953D01*
X122697507Y-97188950D01*
X122700619Y-97187207D01*
X122703515Y-97185122D01*
X122703520Y-97185119D01*
X122877694Y-97059731D01*
X122986395Y-96981477D01*
X123018581Y-96952242D01*
X123244405Y-96747118D01*
X123244406Y-96747117D01*
X123247046Y-96744719D01*
X123427925Y-96538467D01*
X123476868Y-96482658D01*
X123476869Y-96482656D01*
X123479219Y-96479977D01*
X123498614Y-96452020D01*
X123583360Y-96329857D01*
X123679929Y-96190653D01*
X123720075Y-96115939D01*
X123822024Y-95926202D01*
X123846598Y-95880468D01*
X123878823Y-95799695D01*
X124539251Y-95799695D01*
X124539548Y-95804848D01*
X124539548Y-95804851D01*
X124545011Y-95899590D01*
X124552110Y-96022715D01*
X124553247Y-96027761D01*
X124553248Y-96027767D01*
X124558696Y-96051939D01*
X124601222Y-96240639D01*
X124685266Y-96447616D01*
X124726133Y-96514305D01*
X124799291Y-96633688D01*
X124801987Y-96638088D01*
X124948250Y-96806938D01*
X125120126Y-96949632D01*
X125313000Y-97062338D01*
X125521692Y-97142030D01*
X125526760Y-97143061D01*
X125526763Y-97143062D01*
X125621862Y-97162410D01*
X125740597Y-97186567D01*
X125745772Y-97186757D01*
X125745774Y-97186757D01*
X125958673Y-97194564D01*
X125958677Y-97194564D01*
X125963837Y-97194753D01*
X125968957Y-97194097D01*
X125968959Y-97194097D01*
X126180288Y-97167025D01*
X126180289Y-97167025D01*
X126185416Y-97166368D01*
X126190376Y-97164880D01*
X126394429Y-97103661D01*
X126394434Y-97103659D01*
X126399384Y-97102174D01*
X126599994Y-97003896D01*
X126781860Y-96874173D01*
X126940096Y-96716489D01*
X126999594Y-96633689D01*
X127070453Y-96535077D01*
X127071776Y-96536028D01*
X127118645Y-96492857D01*
X127188580Y-96480625D01*
X127254026Y-96508144D01*
X127281875Y-96539994D01*
X127296720Y-96564219D01*
X127341987Y-96638088D01*
X127488250Y-96806938D01*
X127660126Y-96949632D01*
X127853000Y-97062338D01*
X128061692Y-97142030D01*
X128066760Y-97143061D01*
X128066763Y-97143062D01*
X128161862Y-97162410D01*
X128280597Y-97186567D01*
X128285772Y-97186757D01*
X128285774Y-97186757D01*
X128498673Y-97194564D01*
X128498677Y-97194564D01*
X128503837Y-97194753D01*
X128508957Y-97194097D01*
X128508959Y-97194097D01*
X128720288Y-97167025D01*
X128720289Y-97167025D01*
X128725416Y-97166368D01*
X128730376Y-97164880D01*
X128934429Y-97103661D01*
X128934434Y-97103659D01*
X128939384Y-97102174D01*
X129139994Y-97003896D01*
X129321860Y-96874173D01*
X129480096Y-96716489D01*
X129539594Y-96633689D01*
X129610453Y-96535077D01*
X129611640Y-96535930D01*
X129658960Y-96492362D01*
X129728897Y-96480145D01*
X129794338Y-96507678D01*
X129822166Y-96539511D01*
X129879694Y-96633388D01*
X129885777Y-96641699D01*
X130025213Y-96802667D01*
X130032580Y-96809883D01*
X130196434Y-96945916D01*
X130204881Y-96951831D01*
X130388756Y-97059279D01*
X130398042Y-97063729D01*
X130597001Y-97139703D01*
X130606899Y-97142579D01*
X130710250Y-97163606D01*
X130724299Y-97162410D01*
X130728000Y-97152065D01*
X130728000Y-95705000D01*
X130748002Y-95636879D01*
X130801658Y-95590386D01*
X130854000Y-95579000D01*
X131110000Y-95579000D01*
X131178121Y-95599002D01*
X131224614Y-95652658D01*
X131236000Y-95705000D01*
X131236000Y-97151517D01*
X131240064Y-97165359D01*
X131253478Y-97167393D01*
X131260184Y-97166534D01*
X131270262Y-97164392D01*
X131474255Y-97103191D01*
X131483842Y-97099433D01*
X131675095Y-97005739D01*
X131683945Y-97000464D01*
X131857328Y-96876792D01*
X131865200Y-96870139D01*
X132016052Y-96719812D01*
X132022730Y-96711965D01*
X132150022Y-96534819D01*
X132151279Y-96535722D01*
X132198373Y-96492362D01*
X132268311Y-96480145D01*
X132333751Y-96507678D01*
X132361579Y-96539511D01*
X132376720Y-96564219D01*
X132421987Y-96638088D01*
X132568250Y-96806938D01*
X132740126Y-96949632D01*
X132933000Y-97062338D01*
X133141692Y-97142030D01*
X133146760Y-97143061D01*
X133146763Y-97143062D01*
X133241862Y-97162410D01*
X133360597Y-97186567D01*
X133365772Y-97186757D01*
X133365774Y-97186757D01*
X133578673Y-97194564D01*
X133578677Y-97194564D01*
X133583837Y-97194753D01*
X133588957Y-97194097D01*
X133588959Y-97194097D01*
X133800288Y-97167025D01*
X133800289Y-97167025D01*
X133805416Y-97166368D01*
X133810376Y-97164880D01*
X134014429Y-97103661D01*
X134014434Y-97103659D01*
X134019384Y-97102174D01*
X134219994Y-97003896D01*
X134401860Y-96874173D01*
X134560096Y-96716489D01*
X134619594Y-96633689D01*
X134690453Y-96535077D01*
X134691776Y-96536028D01*
X134738645Y-96492857D01*
X134808580Y-96480625D01*
X134874026Y-96508144D01*
X134901875Y-96539994D01*
X134916720Y-96564219D01*
X134961987Y-96638088D01*
X135108250Y-96806938D01*
X135280126Y-96949632D01*
X135473000Y-97062338D01*
X135681692Y-97142030D01*
X135686760Y-97143061D01*
X135686763Y-97143062D01*
X135781862Y-97162410D01*
X135900597Y-97186567D01*
X135905771Y-97186757D01*
X135905773Y-97186757D01*
X135965665Y-97188953D01*
X136047649Y-97191959D01*
X136114990Y-97214443D01*
X136159486Y-97269767D01*
X136167008Y-97340364D01*
X136132126Y-97406969D01*
X135836500Y-97702595D01*
X135774188Y-97736621D01*
X135747405Y-97739500D01*
X132451257Y-97739500D01*
X132440074Y-97738973D01*
X132432581Y-97737298D01*
X132424655Y-97737547D01*
X132424654Y-97737547D01*
X132364491Y-97739438D01*
X132360533Y-97739500D01*
X132332633Y-97739500D01*
X132328643Y-97740004D01*
X132316809Y-97740936D01*
X132272600Y-97742326D01*
X132264984Y-97744539D01*
X132264982Y-97744539D01*
X132253141Y-97747979D01*
X132233782Y-97751988D01*
X132232472Y-97752154D01*
X132213692Y-97754526D01*
X132206326Y-97757442D01*
X132206320Y-97757444D01*
X132172587Y-97770800D01*
X132161357Y-97774645D01*
X132148415Y-97778405D01*
X132118896Y-97786981D01*
X132112073Y-97791016D01*
X132101455Y-97797295D01*
X132083702Y-97805992D01*
X132076057Y-97809019D01*
X132064872Y-97813448D01*
X132058457Y-97818109D01*
X132029101Y-97839437D01*
X132019184Y-97845951D01*
X131981127Y-97868458D01*
X131966806Y-97882779D01*
X131951773Y-97895619D01*
X131935382Y-97907528D01*
X131930331Y-97913634D01*
X131907191Y-97941605D01*
X131899201Y-97950384D01*
X130799747Y-99049837D01*
X130791461Y-99057377D01*
X130784982Y-99061489D01*
X130779557Y-99067266D01*
X130738357Y-99111140D01*
X130735602Y-99113982D01*
X130715865Y-99133719D01*
X130713385Y-99136916D01*
X130705682Y-99145936D01*
X130675414Y-99178168D01*
X130671595Y-99185114D01*
X130671593Y-99185117D01*
X130665652Y-99195923D01*
X130654801Y-99212442D01*
X130642386Y-99228448D01*
X130639241Y-99235717D01*
X130639238Y-99235721D01*
X130624826Y-99269026D01*
X130619609Y-99279676D01*
X130598305Y-99318429D01*
X130596334Y-99326104D01*
X130596334Y-99326105D01*
X130593267Y-99338051D01*
X130586863Y-99356755D01*
X130578819Y-99375344D01*
X130577580Y-99383167D01*
X130577577Y-99383177D01*
X130571901Y-99419013D01*
X130569495Y-99430633D01*
X130558500Y-99473459D01*
X130558500Y-99493713D01*
X130556949Y-99513423D01*
X130553780Y-99533432D01*
X130554526Y-99541324D01*
X130557941Y-99577450D01*
X130558500Y-99589308D01*
X130558500Y-112276207D01*
X130556268Y-112299816D01*
X130554725Y-112307906D01*
X130557459Y-112351365D01*
X130558251Y-112363951D01*
X130558500Y-112371862D01*
X130558500Y-112387856D01*
X130560506Y-112403730D01*
X130561248Y-112411590D01*
X130564775Y-112467650D01*
X130567225Y-112475191D01*
X130567321Y-112475487D01*
X130572494Y-112498631D01*
X130572532Y-112498935D01*
X130572533Y-112498940D01*
X130573526Y-112506797D01*
X130576442Y-112514162D01*
X130576443Y-112514166D01*
X130594199Y-112559011D01*
X130596871Y-112566430D01*
X130614236Y-112619875D01*
X130618486Y-112626571D01*
X130618486Y-112626572D01*
X130618650Y-112626831D01*
X130629415Y-112647958D01*
X130629529Y-112648246D01*
X130629532Y-112648251D01*
X130632448Y-112655617D01*
X130637104Y-112662025D01*
X130637107Y-112662031D01*
X130665458Y-112701052D01*
X130669901Y-112707589D01*
X130700000Y-112755018D01*
X130705778Y-112760444D01*
X130705779Y-112760445D01*
X130706007Y-112760659D01*
X130721688Y-112778446D01*
X130726528Y-112785107D01*
X130732637Y-112790161D01*
X130732638Y-112790162D01*
X130769796Y-112820903D01*
X130775730Y-112826134D01*
X130810898Y-112859158D01*
X130810901Y-112859160D01*
X130816679Y-112864586D01*
X130823903Y-112868558D01*
X130843506Y-112881881D01*
X130843746Y-112882079D01*
X130849856Y-112887133D01*
X130857027Y-112890508D01*
X130863282Y-112894477D01*
X130884864Y-112911768D01*
X132244321Y-114271225D01*
X132278347Y-114333537D01*
X132273282Y-114404352D01*
X132270128Y-114411903D01*
X132269870Y-114412604D01*
X132267688Y-114417305D01*
X132207989Y-114632570D01*
X132184251Y-114854695D01*
X132184548Y-114859848D01*
X132184548Y-114859851D01*
X132190011Y-114954590D01*
X132197110Y-115077715D01*
X132198247Y-115082761D01*
X132198248Y-115082767D01*
X132218119Y-115170939D01*
X132246222Y-115295639D01*
X132330266Y-115502616D01*
X132372650Y-115571781D01*
X132424274Y-115656023D01*
X132446987Y-115693088D01*
X132593250Y-115861938D01*
X132765126Y-116004632D01*
X132826196Y-116040318D01*
X132838955Y-116047774D01*
X132887679Y-116099412D01*
X132900750Y-116169195D01*
X132874019Y-116234967D01*
X132833562Y-116268327D01*
X132825457Y-116272546D01*
X132816738Y-116278036D01*
X132646433Y-116405905D01*
X132638726Y-116412748D01*
X132491590Y-116566717D01*
X132485104Y-116574727D01*
X132365098Y-116750649D01*
X132360000Y-116759623D01*
X132270338Y-116952783D01*
X132266775Y-116962470D01*
X132211389Y-117162183D01*
X132212912Y-117170607D01*
X132225292Y-117174000D01*
X134865344Y-117174000D01*
X134878875Y-117170027D01*
X134880180Y-117160947D01*
X134838214Y-116993875D01*
X134834894Y-116984124D01*
X134749972Y-116788814D01*
X134745105Y-116779739D01*
X134629426Y-116600926D01*
X134623136Y-116592757D01*
X134479806Y-116435240D01*
X134472273Y-116428215D01*
X134305139Y-116296222D01*
X134296556Y-116290520D01*
X134259602Y-116270120D01*
X134209631Y-116219687D01*
X134194859Y-116150245D01*
X134219975Y-116083839D01*
X134247327Y-116057232D01*
X134271040Y-116040318D01*
X134426860Y-115929173D01*
X134585096Y-115771489D01*
X134644594Y-115688689D01*
X134712435Y-115594277D01*
X134715453Y-115590077D01*
X134723080Y-115574646D01*
X134812136Y-115394453D01*
X134812137Y-115394451D01*
X134814430Y-115389811D01*
X134879370Y-115176069D01*
X134908529Y-114954590D01*
X134910006Y-114894144D01*
X134910074Y-114891365D01*
X134910074Y-114891361D01*
X134910156Y-114888000D01*
X134891852Y-114665361D01*
X134837431Y-114448702D01*
X134748354Y-114243840D01*
X134627014Y-114056277D01*
X134476670Y-113891051D01*
X134472619Y-113887852D01*
X134472615Y-113887848D01*
X134305414Y-113755800D01*
X134305410Y-113755798D01*
X134301359Y-113752598D01*
X134260053Y-113729796D01*
X134210084Y-113679364D01*
X134195312Y-113609921D01*
X134220428Y-113543516D01*
X134247780Y-113516909D01*
X134291603Y-113485650D01*
X134426860Y-113389173D01*
X134585096Y-113231489D01*
X134644594Y-113148689D01*
X134712435Y-113054277D01*
X134715453Y-113050077D01*
X134717746Y-113045437D01*
X134719446Y-113042608D01*
X134771674Y-112994518D01*
X134827451Y-112981500D01*
X136369243Y-112981500D01*
X136380426Y-112982027D01*
X136387919Y-112983702D01*
X136395845Y-112983453D01*
X136395846Y-112983453D01*
X136455996Y-112981562D01*
X136459955Y-112981500D01*
X136487866Y-112981500D01*
X136491801Y-112981003D01*
X136491866Y-112980995D01*
X136503703Y-112980062D01*
X136535961Y-112979048D01*
X136539980Y-112978922D01*
X136547899Y-112978673D01*
X136567353Y-112973021D01*
X136586710Y-112969013D01*
X136598940Y-112967468D01*
X136598941Y-112967468D01*
X136606807Y-112966474D01*
X136614178Y-112963555D01*
X136614180Y-112963555D01*
X136647922Y-112950196D01*
X136659152Y-112946351D01*
X136693993Y-112936229D01*
X136693994Y-112936229D01*
X136701603Y-112934018D01*
X136708422Y-112929985D01*
X136708427Y-112929983D01*
X136719038Y-112923707D01*
X136736786Y-112915012D01*
X136755627Y-112907552D01*
X136773624Y-112894477D01*
X136791397Y-112881564D01*
X136801317Y-112875048D01*
X136832545Y-112856580D01*
X136832548Y-112856578D01*
X136839372Y-112852542D01*
X136853693Y-112838221D01*
X136868727Y-112825380D01*
X136878704Y-112818131D01*
X136885117Y-112813472D01*
X136913308Y-112779395D01*
X136921298Y-112770616D01*
X141753510Y-107938405D01*
X141815822Y-107904379D01*
X141842605Y-107901500D01*
X143813233Y-107901500D01*
X143824416Y-107902027D01*
X143831909Y-107903702D01*
X143839835Y-107903453D01*
X143839836Y-107903453D01*
X143899986Y-107901562D01*
X143903945Y-107901500D01*
X165241274Y-107901500D01*
X165309395Y-107921502D01*
X165348707Y-107961665D01*
X165416987Y-108073088D01*
X165563250Y-108241938D01*
X165735126Y-108384632D01*
X165805595Y-108425811D01*
X165808445Y-108427476D01*
X165857169Y-108479114D01*
X165870240Y-108548897D01*
X165843509Y-108614669D01*
X165803055Y-108648027D01*
X165790607Y-108654507D01*
X165786474Y-108657610D01*
X165786471Y-108657612D01*
X165762247Y-108675800D01*
X165611965Y-108788635D01*
X165457629Y-108950138D01*
X165331743Y-109134680D01*
X165237688Y-109337305D01*
X165177989Y-109552570D01*
X165154251Y-109774695D01*
X165154548Y-109779848D01*
X165154548Y-109779851D01*
X165162068Y-109910263D01*
X165167110Y-109997715D01*
X165168247Y-110002761D01*
X165168248Y-110002767D01*
X165172907Y-110023438D01*
X165216222Y-110215639D01*
X165300266Y-110422616D01*
X165416987Y-110613088D01*
X165563250Y-110781938D01*
X165735126Y-110924632D01*
X165805595Y-110965811D01*
X165808445Y-110967476D01*
X165857169Y-111019114D01*
X165870240Y-111088897D01*
X165843509Y-111154669D01*
X165803055Y-111188027D01*
X165790607Y-111194507D01*
X165786474Y-111197610D01*
X165786471Y-111197612D01*
X165762247Y-111215800D01*
X165611965Y-111328635D01*
X165457629Y-111490138D01*
X165331743Y-111674680D01*
X165237688Y-111877305D01*
X165177989Y-112092570D01*
X165154251Y-112314695D01*
X165154548Y-112319848D01*
X165154548Y-112319851D01*
X165159838Y-112411598D01*
X165167110Y-112537715D01*
X165168247Y-112542761D01*
X165168248Y-112542767D01*
X165183927Y-112612339D01*
X165216222Y-112755639D01*
X165267483Y-112881881D01*
X165293662Y-112946351D01*
X165300266Y-112962616D01*
X165319816Y-112994518D01*
X165372513Y-113080512D01*
X165416987Y-113153088D01*
X165563250Y-113321938D01*
X165735126Y-113464632D01*
X165784540Y-113493507D01*
X165808445Y-113507476D01*
X165857169Y-113559114D01*
X165870240Y-113628897D01*
X165843509Y-113694669D01*
X165803055Y-113728027D01*
X165790607Y-113734507D01*
X165786474Y-113737610D01*
X165786471Y-113737612D01*
X165762247Y-113755800D01*
X165611965Y-113868635D01*
X165457629Y-114030138D01*
X165331743Y-114214680D01*
X165316003Y-114248590D01*
X165240196Y-114411903D01*
X165237688Y-114417305D01*
X165177989Y-114632570D01*
X165154251Y-114854695D01*
X165154548Y-114859848D01*
X165154548Y-114859851D01*
X165160011Y-114954590D01*
X165167110Y-115077715D01*
X165168247Y-115082761D01*
X165168248Y-115082767D01*
X165188119Y-115170939D01*
X165216222Y-115295639D01*
X165300266Y-115502616D01*
X165342650Y-115571781D01*
X165394274Y-115656023D01*
X165416987Y-115693088D01*
X165563250Y-115861938D01*
X165567230Y-115865242D01*
X165571981Y-115869187D01*
X165611616Y-115928090D01*
X165613113Y-115999071D01*
X165575997Y-116059593D01*
X165535724Y-116084112D01*
X165420295Y-116127385D01*
X165303739Y-116214739D01*
X165216385Y-116331295D01*
X165165255Y-116467684D01*
X165158500Y-116529866D01*
X165158500Y-118326134D01*
X165165255Y-118388316D01*
X165216385Y-118524705D01*
X165303739Y-118641261D01*
X165420295Y-118728615D01*
X165556684Y-118779745D01*
X165618866Y-118786500D01*
X167415134Y-118786500D01*
X167477316Y-118779745D01*
X167613705Y-118728615D01*
X167730261Y-118641261D01*
X167817615Y-118524705D01*
X167868745Y-118388316D01*
X167875500Y-118326134D01*
X167875500Y-116529866D01*
X167868745Y-116467684D01*
X167817615Y-116331295D01*
X167730261Y-116214739D01*
X167613705Y-116127385D01*
X167586905Y-116117338D01*
X167495203Y-116082960D01*
X167438439Y-116040318D01*
X167413739Y-115973756D01*
X167428947Y-115904408D01*
X167450493Y-115875727D01*
X167468251Y-115858031D01*
X167555096Y-115771489D01*
X167614594Y-115688689D01*
X167682435Y-115594277D01*
X167685453Y-115590077D01*
X167693080Y-115574646D01*
X167782136Y-115394453D01*
X167782137Y-115394451D01*
X167784430Y-115389811D01*
X167849370Y-115176069D01*
X167878529Y-114954590D01*
X167880006Y-114894144D01*
X167880074Y-114891365D01*
X167880074Y-114891361D01*
X167880156Y-114888000D01*
X167867293Y-114731548D01*
X167881646Y-114662019D01*
X167903774Y-114632130D01*
X170049092Y-112486813D01*
X172224253Y-110311652D01*
X172232539Y-110304112D01*
X172239018Y-110300000D01*
X172285644Y-110250348D01*
X172288398Y-110247507D01*
X172308135Y-110227770D01*
X172310615Y-110224573D01*
X172318320Y-110215551D01*
X172343159Y-110189100D01*
X172348586Y-110183321D01*
X172352405Y-110176375D01*
X172352407Y-110176372D01*
X172358348Y-110165566D01*
X172369199Y-110149047D01*
X172376758Y-110139301D01*
X172381614Y-110133041D01*
X172384759Y-110125772D01*
X172384762Y-110125768D01*
X172399174Y-110092463D01*
X172404391Y-110081813D01*
X172425695Y-110043060D01*
X172430733Y-110023437D01*
X172437137Y-110004734D01*
X172442033Y-109993420D01*
X172442033Y-109993419D01*
X172445181Y-109986145D01*
X172446420Y-109978322D01*
X172446423Y-109978312D01*
X172452099Y-109942476D01*
X172454505Y-109930856D01*
X172463528Y-109895711D01*
X172463528Y-109895710D01*
X172465500Y-109888030D01*
X172465500Y-109867776D01*
X172467051Y-109848065D01*
X172468980Y-109835886D01*
X172470220Y-109828057D01*
X172466059Y-109784038D01*
X172465500Y-109772181D01*
X172465500Y-102266767D01*
X172466027Y-102255584D01*
X172467702Y-102248091D01*
X172465562Y-102180000D01*
X172465500Y-102176043D01*
X172465500Y-102148144D01*
X172464996Y-102144153D01*
X172464063Y-102132311D01*
X172464063Y-102132292D01*
X172462674Y-102088111D01*
X172460461Y-102080493D01*
X172460461Y-102080492D01*
X172457023Y-102068659D01*
X172453012Y-102049295D01*
X172451467Y-102037064D01*
X172450474Y-102029203D01*
X172447557Y-102021836D01*
X172447556Y-102021831D01*
X172434198Y-101988092D01*
X172430354Y-101976865D01*
X172420230Y-101942022D01*
X172418018Y-101934407D01*
X172407707Y-101916972D01*
X172399012Y-101899224D01*
X172391552Y-101880383D01*
X172377986Y-101861710D01*
X172365564Y-101844613D01*
X172359048Y-101834693D01*
X172340580Y-101803465D01*
X172340578Y-101803462D01*
X172336542Y-101796638D01*
X172322221Y-101782317D01*
X172309380Y-101767283D01*
X172302131Y-101757306D01*
X172297472Y-101750893D01*
X172263395Y-101722702D01*
X172254616Y-101714712D01*
X167506859Y-96966954D01*
X167472833Y-96904642D01*
X167477898Y-96833827D01*
X167507014Y-96788608D01*
X167576057Y-96719805D01*
X167582730Y-96711965D01*
X167710022Y-96534819D01*
X167711279Y-96535722D01*
X167758373Y-96492362D01*
X167828311Y-96480145D01*
X167893751Y-96507678D01*
X167921579Y-96539511D01*
X167936720Y-96564219D01*
X167981987Y-96638088D01*
X168128250Y-96806938D01*
X168300126Y-96949632D01*
X168493000Y-97062338D01*
X168701692Y-97142030D01*
X168706760Y-97143061D01*
X168706763Y-97143062D01*
X168801862Y-97162410D01*
X168920597Y-97186567D01*
X168925772Y-97186757D01*
X168925774Y-97186757D01*
X169138673Y-97194564D01*
X169138677Y-97194564D01*
X169143837Y-97194753D01*
X169148957Y-97194097D01*
X169148959Y-97194097D01*
X169360288Y-97167025D01*
X169360289Y-97167025D01*
X169365416Y-97166368D01*
X169370376Y-97164880D01*
X169574429Y-97103661D01*
X169574434Y-97103659D01*
X169579384Y-97102174D01*
X169779994Y-97003896D01*
X169961860Y-96874173D01*
X170120096Y-96716489D01*
X170179594Y-96633689D01*
X170250453Y-96535077D01*
X170251776Y-96536028D01*
X170298645Y-96492857D01*
X170368580Y-96480625D01*
X170434026Y-96508144D01*
X170461875Y-96539994D01*
X170476720Y-96564219D01*
X170521987Y-96638088D01*
X170668250Y-96806938D01*
X170840126Y-96949632D01*
X171033000Y-97062338D01*
X171241692Y-97142030D01*
X171246760Y-97143061D01*
X171246763Y-97143062D01*
X171341862Y-97162410D01*
X171460597Y-97186567D01*
X171465772Y-97186757D01*
X171465774Y-97186757D01*
X171678673Y-97194564D01*
X171678677Y-97194564D01*
X171683837Y-97194753D01*
X171688957Y-97194097D01*
X171688959Y-97194097D01*
X171900288Y-97167025D01*
X171900289Y-97167025D01*
X171905416Y-97166368D01*
X171910376Y-97164880D01*
X172114429Y-97103661D01*
X172114434Y-97103659D01*
X172119384Y-97102174D01*
X172319994Y-97003896D01*
X172501860Y-96874173D01*
X172660096Y-96716489D01*
X172719594Y-96633689D01*
X172790453Y-96535077D01*
X172791776Y-96536028D01*
X172838645Y-96492857D01*
X172908580Y-96480625D01*
X172974026Y-96508144D01*
X173001875Y-96539994D01*
X173016720Y-96564219D01*
X173061987Y-96638088D01*
X173208250Y-96806938D01*
X173380126Y-96949632D01*
X173573000Y-97062338D01*
X173781692Y-97142030D01*
X173786760Y-97143061D01*
X173786763Y-97143062D01*
X173881862Y-97162410D01*
X174000597Y-97186567D01*
X174005772Y-97186757D01*
X174005774Y-97186757D01*
X174218673Y-97194564D01*
X174218677Y-97194564D01*
X174223837Y-97194753D01*
X174228957Y-97194097D01*
X174228959Y-97194097D01*
X174440288Y-97167025D01*
X174440289Y-97167025D01*
X174445416Y-97166368D01*
X174450376Y-97164880D01*
X174654429Y-97103661D01*
X174654434Y-97103659D01*
X174659384Y-97102174D01*
X174859994Y-97003896D01*
X175041860Y-96874173D01*
X175200096Y-96716489D01*
X175259594Y-96633689D01*
X175327435Y-96539277D01*
X175330453Y-96535077D01*
X175343995Y-96507678D01*
X175427136Y-96339453D01*
X175427137Y-96339451D01*
X175429430Y-96334811D01*
X175494370Y-96121069D01*
X175523529Y-95899590D01*
X175523996Y-95880468D01*
X175525074Y-95836365D01*
X175525074Y-95836361D01*
X175525156Y-95833000D01*
X175506852Y-95610361D01*
X175452431Y-95393702D01*
X175363354Y-95188840D01*
X175242014Y-95001277D01*
X175091670Y-94836051D01*
X175087619Y-94832852D01*
X175087615Y-94832848D01*
X174920414Y-94700800D01*
X174920410Y-94700798D01*
X174916359Y-94697598D01*
X174874569Y-94674529D01*
X174824598Y-94624097D01*
X174809826Y-94554654D01*
X174834942Y-94488248D01*
X174862294Y-94461641D01*
X175037328Y-94336792D01*
X175045200Y-94330139D01*
X175196052Y-94179812D01*
X175202730Y-94171965D01*
X175327003Y-93999020D01*
X175332313Y-93990183D01*
X175426670Y-93799267D01*
X175430469Y-93789672D01*
X175492377Y-93585910D01*
X175494555Y-93575837D01*
X175495986Y-93564962D01*
X175493775Y-93550778D01*
X175480617Y-93547000D01*
X174034000Y-93547000D01*
X173965879Y-93526998D01*
X173919386Y-93473342D01*
X173908000Y-93421000D01*
X173908000Y-93020885D01*
X174416000Y-93020885D01*
X174420475Y-93036124D01*
X174421865Y-93037329D01*
X174429548Y-93039000D01*
X175480344Y-93039000D01*
X175493875Y-93035027D01*
X175495180Y-93025947D01*
X175453214Y-92858875D01*
X175449894Y-92849124D01*
X175364972Y-92653814D01*
X175360105Y-92644739D01*
X175244426Y-92465926D01*
X175238136Y-92457757D01*
X175094806Y-92300240D01*
X175087273Y-92293215D01*
X174920139Y-92161222D01*
X174911552Y-92155517D01*
X174725117Y-92052599D01*
X174715705Y-92048369D01*
X174514959Y-91977280D01*
X174504988Y-91974646D01*
X174433837Y-91961972D01*
X174420540Y-91963432D01*
X174416000Y-91977989D01*
X174416000Y-93020885D01*
X173908000Y-93020885D01*
X173908000Y-91976102D01*
X173904082Y-91962758D01*
X173889806Y-91960771D01*
X173851324Y-91966660D01*
X173841288Y-91969051D01*
X173638868Y-92035212D01*
X173629359Y-92039209D01*
X173440463Y-92137542D01*
X173431738Y-92143036D01*
X173261433Y-92270905D01*
X173253726Y-92277748D01*
X173106590Y-92431717D01*
X173100109Y-92439722D01*
X172995498Y-92593074D01*
X172940587Y-92638076D01*
X172870062Y-92646247D01*
X172806315Y-92614993D01*
X172785618Y-92590509D01*
X172704822Y-92465617D01*
X172704820Y-92465614D01*
X172702014Y-92461277D01*
X172551670Y-92296051D01*
X172547619Y-92292852D01*
X172547615Y-92292848D01*
X172380414Y-92160800D01*
X172380410Y-92160798D01*
X172376359Y-92157598D01*
X172367016Y-92152440D01*
X172301785Y-92116431D01*
X172180789Y-92049638D01*
X172175920Y-92047914D01*
X172175916Y-92047912D01*
X171975087Y-91976795D01*
X171975083Y-91976794D01*
X171970212Y-91975069D01*
X171965119Y-91974162D01*
X171965116Y-91974161D01*
X171755373Y-91936800D01*
X171755367Y-91936799D01*
X171750284Y-91935894D01*
X171676452Y-91934992D01*
X171532081Y-91933228D01*
X171532079Y-91933228D01*
X171526911Y-91933165D01*
X171306091Y-91966955D01*
X171093756Y-92036357D01*
X171020757Y-92074358D01*
X170939936Y-92116431D01*
X170895607Y-92139507D01*
X170891474Y-92142610D01*
X170891471Y-92142612D01*
X170721100Y-92270530D01*
X170716965Y-92273635D01*
X170713393Y-92277373D01*
X170605729Y-92390037D01*
X170562629Y-92435138D01*
X170455201Y-92592621D01*
X170400293Y-92637621D01*
X170329768Y-92645792D01*
X170266021Y-92614538D01*
X170245324Y-92590054D01*
X170164822Y-92465617D01*
X170164820Y-92465614D01*
X170162014Y-92461277D01*
X170011670Y-92296051D01*
X170007619Y-92292852D01*
X170007615Y-92292848D01*
X169840414Y-92160800D01*
X169840410Y-92160798D01*
X169836359Y-92157598D01*
X169827016Y-92152440D01*
X169761785Y-92116431D01*
X169640789Y-92049638D01*
X169635920Y-92047914D01*
X169635916Y-92047912D01*
X169435087Y-91976795D01*
X169435083Y-91976794D01*
X169430212Y-91975069D01*
X169425119Y-91974162D01*
X169425116Y-91974161D01*
X169215373Y-91936800D01*
X169215367Y-91936799D01*
X169210284Y-91935894D01*
X169136452Y-91934992D01*
X168992081Y-91933228D01*
X168992079Y-91933228D01*
X168986911Y-91933165D01*
X168766091Y-91966955D01*
X168553756Y-92036357D01*
X168480757Y-92074358D01*
X168399936Y-92116431D01*
X168355607Y-92139507D01*
X168351474Y-92142610D01*
X168351471Y-92142612D01*
X168181100Y-92270530D01*
X168176965Y-92273635D01*
X168173393Y-92277373D01*
X168065729Y-92390037D01*
X168022629Y-92435138D01*
X167915201Y-92592621D01*
X167860293Y-92637621D01*
X167789768Y-92645792D01*
X167726021Y-92614538D01*
X167705324Y-92590054D01*
X167624822Y-92465617D01*
X167624820Y-92465614D01*
X167622014Y-92461277D01*
X167471670Y-92296051D01*
X167467619Y-92292852D01*
X167467615Y-92292848D01*
X167300414Y-92160800D01*
X167300410Y-92160798D01*
X167296359Y-92157598D01*
X167287016Y-92152440D01*
X167221785Y-92116431D01*
X167100789Y-92049638D01*
X167095920Y-92047914D01*
X167095916Y-92047912D01*
X166895087Y-91976795D01*
X166895083Y-91976794D01*
X166890212Y-91975069D01*
X166885119Y-91974162D01*
X166885116Y-91974161D01*
X166675373Y-91936800D01*
X166675367Y-91936799D01*
X166670284Y-91935894D01*
X166596452Y-91934992D01*
X166452081Y-91933228D01*
X166452079Y-91933228D01*
X166446911Y-91933165D01*
X166226091Y-91966955D01*
X166013756Y-92036357D01*
X165940757Y-92074358D01*
X165859936Y-92116431D01*
X165815607Y-92139507D01*
X165811474Y-92142610D01*
X165811471Y-92142612D01*
X165641100Y-92270530D01*
X165636965Y-92273635D01*
X165633393Y-92277373D01*
X165525729Y-92390037D01*
X165482629Y-92435138D01*
X165375201Y-92592621D01*
X165320293Y-92637621D01*
X165249768Y-92645792D01*
X165186021Y-92614538D01*
X165165324Y-92590054D01*
X165084822Y-92465617D01*
X165084820Y-92465614D01*
X165082014Y-92461277D01*
X164931670Y-92296051D01*
X164927619Y-92292852D01*
X164927615Y-92292848D01*
X164760414Y-92160800D01*
X164760410Y-92160798D01*
X164756359Y-92157598D01*
X164747016Y-92152440D01*
X164681785Y-92116431D01*
X164560789Y-92049638D01*
X164555920Y-92047914D01*
X164555916Y-92047912D01*
X164355087Y-91976795D01*
X164355083Y-91976794D01*
X164350212Y-91975069D01*
X164345119Y-91974162D01*
X164345116Y-91974161D01*
X164135373Y-91936800D01*
X164135367Y-91936799D01*
X164130284Y-91935894D01*
X164056452Y-91934992D01*
X163912081Y-91933228D01*
X163912079Y-91933228D01*
X163906911Y-91933165D01*
X163686091Y-91966955D01*
X163473756Y-92036357D01*
X163400757Y-92074358D01*
X163319936Y-92116431D01*
X163275607Y-92139507D01*
X163271474Y-92142610D01*
X163271471Y-92142612D01*
X163101100Y-92270530D01*
X163096965Y-92273635D01*
X163093393Y-92277373D01*
X162985729Y-92390037D01*
X162942629Y-92435138D01*
X162835201Y-92592621D01*
X162780293Y-92637621D01*
X162709768Y-92645792D01*
X162646021Y-92614538D01*
X162625324Y-92590054D01*
X162544822Y-92465617D01*
X162544820Y-92465614D01*
X162542014Y-92461277D01*
X162391670Y-92296051D01*
X162387619Y-92292852D01*
X162387615Y-92292848D01*
X162220414Y-92160800D01*
X162220410Y-92160798D01*
X162216359Y-92157598D01*
X162207016Y-92152440D01*
X162141785Y-92116431D01*
X162020789Y-92049638D01*
X162015920Y-92047914D01*
X162015916Y-92047912D01*
X161815087Y-91976795D01*
X161815083Y-91976794D01*
X161810212Y-91975069D01*
X161805119Y-91974162D01*
X161805116Y-91974161D01*
X161595373Y-91936800D01*
X161595367Y-91936799D01*
X161590284Y-91935894D01*
X161516452Y-91934992D01*
X161372081Y-91933228D01*
X161372079Y-91933228D01*
X161366911Y-91933165D01*
X161146091Y-91966955D01*
X160933756Y-92036357D01*
X160860757Y-92074358D01*
X160779936Y-92116431D01*
X160735607Y-92139507D01*
X160731474Y-92142610D01*
X160731471Y-92142612D01*
X160561100Y-92270530D01*
X160556965Y-92273635D01*
X160553393Y-92277373D01*
X160445729Y-92390037D01*
X160402629Y-92435138D01*
X160295201Y-92592621D01*
X160240293Y-92637621D01*
X160169768Y-92645792D01*
X160106021Y-92614538D01*
X160085324Y-92590054D01*
X160004822Y-92465617D01*
X160004820Y-92465614D01*
X160002014Y-92461277D01*
X159851670Y-92296051D01*
X159847619Y-92292852D01*
X159847615Y-92292848D01*
X159680414Y-92160800D01*
X159680410Y-92160798D01*
X159676359Y-92157598D01*
X159667016Y-92152440D01*
X159601785Y-92116431D01*
X159480789Y-92049638D01*
X159475920Y-92047914D01*
X159475916Y-92047912D01*
X159275087Y-91976795D01*
X159275083Y-91976794D01*
X159270212Y-91975069D01*
X159265119Y-91974162D01*
X159265116Y-91974161D01*
X159055373Y-91936800D01*
X159055367Y-91936799D01*
X159050284Y-91935894D01*
X158976452Y-91934992D01*
X158832081Y-91933228D01*
X158832079Y-91933228D01*
X158826911Y-91933165D01*
X158606091Y-91966955D01*
X158393756Y-92036357D01*
X158320757Y-92074358D01*
X158239936Y-92116431D01*
X158195607Y-92139507D01*
X158191474Y-92142610D01*
X158191471Y-92142612D01*
X158021100Y-92270530D01*
X158016965Y-92273635D01*
X158013393Y-92277373D01*
X157905729Y-92390037D01*
X157862629Y-92435138D01*
X157755204Y-92592618D01*
X157754898Y-92593066D01*
X157699987Y-92638069D01*
X157629462Y-92646240D01*
X157565715Y-92614986D01*
X157545018Y-92590502D01*
X157464426Y-92465926D01*
X157458136Y-92457757D01*
X157314806Y-92300240D01*
X157307273Y-92293215D01*
X157140139Y-92161222D01*
X157131552Y-92155517D01*
X156945117Y-92052599D01*
X156935705Y-92048369D01*
X156734959Y-91977280D01*
X156724988Y-91974646D01*
X156653837Y-91961972D01*
X156640540Y-91963432D01*
X156636000Y-91977989D01*
X156636000Y-93421000D01*
X156615998Y-93489121D01*
X156562342Y-93535614D01*
X156510000Y-93547000D01*
X156254000Y-93547000D01*
X156185879Y-93526998D01*
X156139386Y-93473342D01*
X156128000Y-93421000D01*
X156128000Y-91976102D01*
X156124082Y-91962758D01*
X156109806Y-91960771D01*
X156071324Y-91966660D01*
X156061288Y-91969051D01*
X155858868Y-92035212D01*
X155849359Y-92039209D01*
X155660463Y-92137542D01*
X155651738Y-92143036D01*
X155481433Y-92270905D01*
X155473726Y-92277748D01*
X155326590Y-92431717D01*
X155320109Y-92439722D01*
X155215498Y-92593074D01*
X155160587Y-92638076D01*
X155090062Y-92646247D01*
X155026315Y-92614993D01*
X155005618Y-92590509D01*
X154924822Y-92465617D01*
X154924820Y-92465614D01*
X154922014Y-92461277D01*
X154771670Y-92296051D01*
X154767619Y-92292852D01*
X154767615Y-92292848D01*
X154600414Y-92160800D01*
X154600410Y-92160798D01*
X154596359Y-92157598D01*
X154587016Y-92152440D01*
X154521785Y-92116431D01*
X154400789Y-92049638D01*
X154395920Y-92047914D01*
X154395916Y-92047912D01*
X154195087Y-91976795D01*
X154195083Y-91976794D01*
X154190212Y-91975069D01*
X154185119Y-91974162D01*
X154185116Y-91974161D01*
X153975373Y-91936800D01*
X153975367Y-91936799D01*
X153970284Y-91935894D01*
X153896452Y-91934992D01*
X153752081Y-91933228D01*
X153752079Y-91933228D01*
X153746911Y-91933165D01*
X153526091Y-91966955D01*
X153313756Y-92036357D01*
X153240757Y-92074358D01*
X153159936Y-92116431D01*
X153115607Y-92139507D01*
X153111474Y-92142610D01*
X153111471Y-92142612D01*
X152941100Y-92270530D01*
X152936965Y-92273635D01*
X152933393Y-92277373D01*
X152825729Y-92390037D01*
X152782629Y-92435138D01*
X152675201Y-92592621D01*
X152620293Y-92637621D01*
X152549768Y-92645792D01*
X152486021Y-92614538D01*
X152465324Y-92590054D01*
X152384822Y-92465617D01*
X152384820Y-92465614D01*
X152382014Y-92461277D01*
X152231670Y-92296051D01*
X152227619Y-92292852D01*
X152227615Y-92292848D01*
X152060414Y-92160800D01*
X152060410Y-92160798D01*
X152056359Y-92157598D01*
X152047016Y-92152440D01*
X151981785Y-92116431D01*
X151860789Y-92049638D01*
X151855920Y-92047914D01*
X151855916Y-92047912D01*
X151655087Y-91976795D01*
X151655083Y-91976794D01*
X151650212Y-91975069D01*
X151645119Y-91974162D01*
X151645116Y-91974161D01*
X151435373Y-91936800D01*
X151435367Y-91936799D01*
X151430284Y-91935894D01*
X151356452Y-91934992D01*
X151212081Y-91933228D01*
X151212079Y-91933228D01*
X151206911Y-91933165D01*
X150986091Y-91966955D01*
X150773756Y-92036357D01*
X150700757Y-92074358D01*
X150619936Y-92116431D01*
X150575607Y-92139507D01*
X150571474Y-92142610D01*
X150571471Y-92142612D01*
X150401100Y-92270530D01*
X150396965Y-92273635D01*
X150393393Y-92277373D01*
X150285729Y-92390037D01*
X150242629Y-92435138D01*
X150135201Y-92592621D01*
X150080293Y-92637621D01*
X150009768Y-92645792D01*
X149946021Y-92614538D01*
X149925324Y-92590054D01*
X149844822Y-92465617D01*
X149844820Y-92465614D01*
X149842014Y-92461277D01*
X149691670Y-92296051D01*
X149687619Y-92292852D01*
X149687615Y-92292848D01*
X149520414Y-92160800D01*
X149520410Y-92160798D01*
X149516359Y-92157598D01*
X149507016Y-92152440D01*
X149441785Y-92116431D01*
X149320789Y-92049638D01*
X149315920Y-92047914D01*
X149315916Y-92047912D01*
X149115087Y-91976795D01*
X149115083Y-91976794D01*
X149110212Y-91975069D01*
X149105119Y-91974162D01*
X149105116Y-91974161D01*
X148895373Y-91936800D01*
X148895367Y-91936799D01*
X148890284Y-91935894D01*
X148816452Y-91934992D01*
X148672081Y-91933228D01*
X148672079Y-91933228D01*
X148666911Y-91933165D01*
X148446091Y-91966955D01*
X148233756Y-92036357D01*
X148160757Y-92074358D01*
X148079936Y-92116431D01*
X148035607Y-92139507D01*
X148031474Y-92142610D01*
X148031471Y-92142612D01*
X147861100Y-92270530D01*
X147856965Y-92273635D01*
X147853393Y-92277373D01*
X147745729Y-92390037D01*
X147702629Y-92435138D01*
X147595201Y-92592621D01*
X147540293Y-92637621D01*
X147469768Y-92645792D01*
X147406021Y-92614538D01*
X147385324Y-92590054D01*
X147304822Y-92465617D01*
X147304820Y-92465614D01*
X147302014Y-92461277D01*
X147151670Y-92296051D01*
X147147619Y-92292852D01*
X147147615Y-92292848D01*
X146980414Y-92160800D01*
X146980410Y-92160798D01*
X146976359Y-92157598D01*
X146967016Y-92152440D01*
X146901785Y-92116431D01*
X146780789Y-92049638D01*
X146775920Y-92047914D01*
X146775916Y-92047912D01*
X146575087Y-91976795D01*
X146575083Y-91976794D01*
X146570212Y-91975069D01*
X146565119Y-91974162D01*
X146565116Y-91974161D01*
X146355373Y-91936800D01*
X146355367Y-91936799D01*
X146350284Y-91935894D01*
X146276452Y-91934992D01*
X146132081Y-91933228D01*
X146132079Y-91933228D01*
X146126911Y-91933165D01*
X145906091Y-91966955D01*
X145693756Y-92036357D01*
X145620757Y-92074358D01*
X145539936Y-92116431D01*
X145495607Y-92139507D01*
X145491474Y-92142610D01*
X145491471Y-92142612D01*
X145321100Y-92270530D01*
X145316965Y-92273635D01*
X145313393Y-92277373D01*
X145205729Y-92390037D01*
X145162629Y-92435138D01*
X145055201Y-92592621D01*
X145000293Y-92637621D01*
X144929768Y-92645792D01*
X144866021Y-92614538D01*
X144845324Y-92590054D01*
X144764822Y-92465617D01*
X144764820Y-92465614D01*
X144762014Y-92461277D01*
X144611670Y-92296051D01*
X144607619Y-92292852D01*
X144607615Y-92292848D01*
X144440414Y-92160800D01*
X144440410Y-92160798D01*
X144436359Y-92157598D01*
X144427016Y-92152440D01*
X144361785Y-92116431D01*
X144240789Y-92049638D01*
X144235920Y-92047914D01*
X144235916Y-92047912D01*
X144035087Y-91976795D01*
X144035083Y-91976794D01*
X144030212Y-91975069D01*
X144025119Y-91974162D01*
X144025116Y-91974161D01*
X143815373Y-91936800D01*
X143815367Y-91936799D01*
X143810284Y-91935894D01*
X143736452Y-91934992D01*
X143592081Y-91933228D01*
X143592079Y-91933228D01*
X143586911Y-91933165D01*
X143366091Y-91966955D01*
X143153756Y-92036357D01*
X143080757Y-92074358D01*
X142999936Y-92116431D01*
X142955607Y-92139507D01*
X142951474Y-92142610D01*
X142951471Y-92142612D01*
X142781100Y-92270530D01*
X142776965Y-92273635D01*
X142773393Y-92277373D01*
X142665729Y-92390037D01*
X142622629Y-92435138D01*
X142515201Y-92592621D01*
X142460293Y-92637621D01*
X142389768Y-92645792D01*
X142326021Y-92614538D01*
X142305324Y-92590054D01*
X142224822Y-92465617D01*
X142224820Y-92465614D01*
X142222014Y-92461277D01*
X142071670Y-92296051D01*
X142067619Y-92292852D01*
X142067615Y-92292848D01*
X141900414Y-92160800D01*
X141900410Y-92160798D01*
X141896359Y-92157598D01*
X141887016Y-92152440D01*
X141821785Y-92116431D01*
X141700789Y-92049638D01*
X141695920Y-92047914D01*
X141695916Y-92047912D01*
X141495087Y-91976795D01*
X141495083Y-91976794D01*
X141490212Y-91975069D01*
X141485119Y-91974162D01*
X141485116Y-91974161D01*
X141275373Y-91936800D01*
X141275367Y-91936799D01*
X141270284Y-91935894D01*
X141196452Y-91934992D01*
X141052081Y-91933228D01*
X141052079Y-91933228D01*
X141046911Y-91933165D01*
X140826091Y-91966955D01*
X140613756Y-92036357D01*
X140540757Y-92074358D01*
X140459936Y-92116431D01*
X140415607Y-92139507D01*
X140411474Y-92142610D01*
X140411471Y-92142612D01*
X140241100Y-92270530D01*
X140236965Y-92273635D01*
X140233393Y-92277373D01*
X140125729Y-92390037D01*
X140082629Y-92435138D01*
X139975201Y-92592621D01*
X139920293Y-92637621D01*
X139849768Y-92645792D01*
X139786021Y-92614538D01*
X139765324Y-92590054D01*
X139684822Y-92465617D01*
X139684820Y-92465614D01*
X139682014Y-92461277D01*
X139531670Y-92296051D01*
X139527619Y-92292852D01*
X139527615Y-92292848D01*
X139360414Y-92160800D01*
X139360410Y-92160798D01*
X139356359Y-92157598D01*
X139347016Y-92152440D01*
X139281785Y-92116431D01*
X139160789Y-92049638D01*
X139155920Y-92047914D01*
X139155916Y-92047912D01*
X138955087Y-91976795D01*
X138955083Y-91976794D01*
X138950212Y-91975069D01*
X138945119Y-91974162D01*
X138945116Y-91974161D01*
X138735373Y-91936800D01*
X138735367Y-91936799D01*
X138730284Y-91935894D01*
X138656452Y-91934992D01*
X138512081Y-91933228D01*
X138512079Y-91933228D01*
X138506911Y-91933165D01*
X138286091Y-91966955D01*
X138073756Y-92036357D01*
X138000757Y-92074358D01*
X137919936Y-92116431D01*
X137875607Y-92139507D01*
X137871474Y-92142610D01*
X137871471Y-92142612D01*
X137701100Y-92270530D01*
X137696965Y-92273635D01*
X137693393Y-92277373D01*
X137585729Y-92390037D01*
X137542629Y-92435138D01*
X137435204Y-92592618D01*
X137434898Y-92593066D01*
X137379987Y-92638069D01*
X137309462Y-92646240D01*
X137245715Y-92614986D01*
X137225018Y-92590502D01*
X137144426Y-92465926D01*
X137138136Y-92457757D01*
X136994806Y-92300240D01*
X136987273Y-92293215D01*
X136820139Y-92161222D01*
X136811552Y-92155517D01*
X136625117Y-92052599D01*
X136615705Y-92048369D01*
X136414959Y-91977280D01*
X136404988Y-91974646D01*
X136333837Y-91961972D01*
X136320540Y-91963432D01*
X136316000Y-91977989D01*
X136316000Y-93421000D01*
X136295998Y-93489121D01*
X136242342Y-93535614D01*
X136190000Y-93547000D01*
X135934000Y-93547000D01*
X135865879Y-93526998D01*
X135819386Y-93473342D01*
X135808000Y-93421000D01*
X135808000Y-91976102D01*
X135804082Y-91962758D01*
X135789806Y-91960771D01*
X135751324Y-91966660D01*
X135741288Y-91969051D01*
X135538868Y-92035212D01*
X135529359Y-92039209D01*
X135340463Y-92137542D01*
X135331738Y-92143036D01*
X135161433Y-92270905D01*
X135153726Y-92277748D01*
X135006590Y-92431717D01*
X135000109Y-92439722D01*
X134895498Y-92593074D01*
X134840587Y-92638076D01*
X134770062Y-92646247D01*
X134706315Y-92614993D01*
X134685618Y-92590509D01*
X134604822Y-92465617D01*
X134604820Y-92465614D01*
X134602014Y-92461277D01*
X134451670Y-92296051D01*
X134447619Y-92292852D01*
X134447615Y-92292848D01*
X134280414Y-92160800D01*
X134280410Y-92160798D01*
X134276359Y-92157598D01*
X134267016Y-92152440D01*
X134201785Y-92116431D01*
X134080789Y-92049638D01*
X134075920Y-92047914D01*
X134075916Y-92047912D01*
X133875087Y-91976795D01*
X133875083Y-91976794D01*
X133870212Y-91975069D01*
X133865119Y-91974162D01*
X133865116Y-91974161D01*
X133655373Y-91936800D01*
X133655367Y-91936799D01*
X133650284Y-91935894D01*
X133576452Y-91934992D01*
X133432081Y-91933228D01*
X133432079Y-91933228D01*
X133426911Y-91933165D01*
X133206091Y-91966955D01*
X132993756Y-92036357D01*
X132920757Y-92074358D01*
X132839936Y-92116431D01*
X132795607Y-92139507D01*
X132791474Y-92142610D01*
X132791471Y-92142612D01*
X132621100Y-92270530D01*
X132616965Y-92273635D01*
X132613393Y-92277373D01*
X132505729Y-92390037D01*
X132462629Y-92435138D01*
X132355201Y-92592621D01*
X132300293Y-92637621D01*
X132229768Y-92645792D01*
X132166021Y-92614538D01*
X132145324Y-92590054D01*
X132064822Y-92465617D01*
X132064820Y-92465614D01*
X132062014Y-92461277D01*
X131911670Y-92296051D01*
X131907619Y-92292852D01*
X131907615Y-92292848D01*
X131740414Y-92160800D01*
X131740410Y-92160798D01*
X131736359Y-92157598D01*
X131727016Y-92152440D01*
X131661785Y-92116431D01*
X131540789Y-92049638D01*
X131535920Y-92047914D01*
X131535916Y-92047912D01*
X131335087Y-91976795D01*
X131335083Y-91976794D01*
X131330212Y-91975069D01*
X131325119Y-91974162D01*
X131325116Y-91974161D01*
X131115373Y-91936800D01*
X131115367Y-91936799D01*
X131110284Y-91935894D01*
X131036452Y-91934992D01*
X130892081Y-91933228D01*
X130892079Y-91933228D01*
X130886911Y-91933165D01*
X130666091Y-91966955D01*
X130453756Y-92036357D01*
X130380757Y-92074358D01*
X130299936Y-92116431D01*
X130255607Y-92139507D01*
X130251474Y-92142610D01*
X130251471Y-92142612D01*
X130081100Y-92270530D01*
X130076965Y-92273635D01*
X130073393Y-92277373D01*
X129965729Y-92390037D01*
X129922629Y-92435138D01*
X129815201Y-92592621D01*
X129760293Y-92637621D01*
X129689768Y-92645792D01*
X129626021Y-92614538D01*
X129605324Y-92590054D01*
X129524822Y-92465617D01*
X129524820Y-92465614D01*
X129522014Y-92461277D01*
X129371670Y-92296051D01*
X129367619Y-92292852D01*
X129367615Y-92292848D01*
X129200414Y-92160800D01*
X129200410Y-92160798D01*
X129196359Y-92157598D01*
X129187016Y-92152440D01*
X129121785Y-92116431D01*
X129000789Y-92049638D01*
X128995920Y-92047914D01*
X128995916Y-92047912D01*
X128795087Y-91976795D01*
X128795083Y-91976794D01*
X128790212Y-91975069D01*
X128785119Y-91974162D01*
X128785116Y-91974161D01*
X128575373Y-91936800D01*
X128575367Y-91936799D01*
X128570284Y-91935894D01*
X128496452Y-91934992D01*
X128352081Y-91933228D01*
X128352079Y-91933228D01*
X128346911Y-91933165D01*
X128126091Y-91966955D01*
X127913756Y-92036357D01*
X127840757Y-92074358D01*
X127759936Y-92116431D01*
X127715607Y-92139507D01*
X127711474Y-92142610D01*
X127711471Y-92142612D01*
X127541100Y-92270530D01*
X127536965Y-92273635D01*
X127480537Y-92332684D01*
X127456283Y-92358064D01*
X127394759Y-92393494D01*
X127323846Y-92390037D01*
X127266060Y-92348791D01*
X127247207Y-92315243D01*
X127205767Y-92204703D01*
X127202615Y-92196295D01*
X127115261Y-92079739D01*
X126998705Y-91992385D01*
X126862316Y-91941255D01*
X126800134Y-91934500D01*
X125003866Y-91934500D01*
X124941684Y-91941255D01*
X124805295Y-91992385D01*
X124688739Y-92079739D01*
X124601385Y-92196295D01*
X124550255Y-92332684D01*
X124543500Y-92394866D01*
X124543500Y-94191134D01*
X124550255Y-94253316D01*
X124601385Y-94389705D01*
X124688739Y-94506261D01*
X124805295Y-94593615D01*
X124813704Y-94596767D01*
X124813705Y-94596768D01*
X124922451Y-94637535D01*
X124979216Y-94680176D01*
X125003916Y-94746738D01*
X124988709Y-94816087D01*
X124969316Y-94842568D01*
X124842629Y-94975138D01*
X124716743Y-95159680D01*
X124622688Y-95362305D01*
X124562989Y-95577570D01*
X124539251Y-95799695D01*
X123878823Y-95799695D01*
X123977081Y-95553410D01*
X124069701Y-95213683D01*
X124102394Y-95001277D01*
X124122726Y-94869178D01*
X124122726Y-94869174D01*
X124123268Y-94865655D01*
X124129574Y-94705143D01*
X124136952Y-94517370D01*
X124136952Y-94517365D01*
X124137092Y-94513800D01*
X124117151Y-94245460D01*
X124111261Y-94166204D01*
X124111260Y-94166199D01*
X124110996Y-94162642D01*
X124045316Y-93816696D01*
X124039905Y-93799267D01*
X123969673Y-93573086D01*
X123940896Y-93480408D01*
X123858435Y-93293000D01*
X123800522Y-93161382D01*
X123800520Y-93161379D01*
X123799079Y-93158103D01*
X123621687Y-92853924D01*
X123411001Y-92571781D01*
X123408557Y-92569183D01*
X123408552Y-92569177D01*
X123172180Y-92317907D01*
X123172176Y-92317904D01*
X123169730Y-92315303D01*
X122979809Y-92154523D01*
X122903698Y-92090090D01*
X122903694Y-92090087D01*
X122900976Y-92087786D01*
X122847624Y-92052137D01*
X122611170Y-91894144D01*
X122611168Y-91894143D01*
X122608193Y-91892155D01*
X122457448Y-91814516D01*
X122406046Y-91765543D01*
X122389280Y-91696554D01*
X122412475Y-91629453D01*
X122468264Y-91585544D01*
X122515140Y-91576500D01*
X177545300Y-91576500D01*
X177613421Y-91596502D01*
G37*
G04 #@! TD.AperFunction*
G04 #@! TA.AperFunction,Conductor*
G36*
X141338121Y-95599002D02*
G01*
X141384614Y-95652658D01*
X141396000Y-95705000D01*
X141396000Y-97151517D01*
X141400064Y-97165359D01*
X141413478Y-97167393D01*
X141420184Y-97166534D01*
X141430262Y-97164392D01*
X141634255Y-97103191D01*
X141643842Y-97099433D01*
X141835095Y-97005739D01*
X141843945Y-97000464D01*
X142017328Y-96876792D01*
X142025200Y-96870139D01*
X142176052Y-96719812D01*
X142182730Y-96711965D01*
X142310022Y-96534819D01*
X142311279Y-96535722D01*
X142358373Y-96492362D01*
X142428311Y-96480145D01*
X142493751Y-96507678D01*
X142521579Y-96539511D01*
X142536720Y-96564219D01*
X142581987Y-96638088D01*
X142728250Y-96806938D01*
X142900126Y-96949632D01*
X143093000Y-97062338D01*
X143301692Y-97142030D01*
X143306760Y-97143061D01*
X143306763Y-97143062D01*
X143401862Y-97162410D01*
X143520597Y-97186567D01*
X143525772Y-97186757D01*
X143525774Y-97186757D01*
X143738673Y-97194564D01*
X143738677Y-97194564D01*
X143743837Y-97194753D01*
X143748957Y-97194097D01*
X143748959Y-97194097D01*
X143960288Y-97167025D01*
X143960289Y-97167025D01*
X143965416Y-97166368D01*
X143970376Y-97164880D01*
X144174429Y-97103661D01*
X144174434Y-97103659D01*
X144179384Y-97102174D01*
X144379994Y-97003896D01*
X144561860Y-96874173D01*
X144720096Y-96716489D01*
X144779594Y-96633689D01*
X144850453Y-96535077D01*
X144851776Y-96536028D01*
X144898645Y-96492857D01*
X144968580Y-96480625D01*
X145034026Y-96508144D01*
X145061875Y-96539994D01*
X145076720Y-96564219D01*
X145121987Y-96638088D01*
X145268250Y-96806938D01*
X145440126Y-96949632D01*
X145633000Y-97062338D01*
X145841692Y-97142030D01*
X145846760Y-97143061D01*
X145846763Y-97143062D01*
X145941862Y-97162410D01*
X146060597Y-97186567D01*
X146065772Y-97186757D01*
X146065774Y-97186757D01*
X146278673Y-97194564D01*
X146278677Y-97194564D01*
X146283837Y-97194753D01*
X146288957Y-97194097D01*
X146288959Y-97194097D01*
X146500288Y-97167025D01*
X146500289Y-97167025D01*
X146505416Y-97166368D01*
X146510376Y-97164880D01*
X146714429Y-97103661D01*
X146714434Y-97103659D01*
X146719384Y-97102174D01*
X146919994Y-97003896D01*
X147101860Y-96874173D01*
X147260096Y-96716489D01*
X147319594Y-96633689D01*
X147390453Y-96535077D01*
X147391640Y-96535930D01*
X147438960Y-96492362D01*
X147508897Y-96480145D01*
X147574338Y-96507678D01*
X147602166Y-96539511D01*
X147659694Y-96633388D01*
X147665777Y-96641699D01*
X147805213Y-96802667D01*
X147812580Y-96809883D01*
X147976434Y-96945916D01*
X147984881Y-96951831D01*
X148168756Y-97059279D01*
X148178042Y-97063729D01*
X148377001Y-97139703D01*
X148386899Y-97142579D01*
X148490250Y-97163606D01*
X148504299Y-97162410D01*
X148508000Y-97152065D01*
X148508000Y-95705000D01*
X148528002Y-95636879D01*
X148581658Y-95590386D01*
X148634000Y-95579000D01*
X148890000Y-95579000D01*
X148958121Y-95599002D01*
X149004614Y-95652658D01*
X149016000Y-95705000D01*
X149016000Y-97151517D01*
X149020064Y-97165359D01*
X149033478Y-97167393D01*
X149040184Y-97166534D01*
X149050262Y-97164392D01*
X149140803Y-97137228D01*
X149211799Y-97136811D01*
X149271749Y-97174844D01*
X149301621Y-97239250D01*
X149303011Y-97257914D01*
X149303011Y-98368895D01*
X149283009Y-98437016D01*
X149266106Y-98457990D01*
X141576020Y-106148075D01*
X141513708Y-106182101D01*
X141486925Y-106184980D01*
X141420576Y-106184980D01*
X141409392Y-106184453D01*
X141401904Y-106182779D01*
X141393981Y-106183028D01*
X141333846Y-106184918D01*
X141329888Y-106184980D01*
X141301957Y-106184980D01*
X141298042Y-106185475D01*
X141298038Y-106185475D01*
X141297980Y-106185483D01*
X141297951Y-106185486D01*
X141286109Y-106186419D01*
X141241923Y-106187807D01*
X141224557Y-106192852D01*
X141222471Y-106193458D01*
X141203119Y-106197466D01*
X141196048Y-106198360D01*
X141183016Y-106200006D01*
X141175647Y-106202923D01*
X141175645Y-106202924D01*
X141141910Y-106216280D01*
X141130682Y-106220125D01*
X141088220Y-106232462D01*
X141081398Y-106236496D01*
X141081392Y-106236499D01*
X141070781Y-106242774D01*
X141053031Y-106251470D01*
X141041569Y-106256008D01*
X141041564Y-106256011D01*
X141034196Y-106258928D01*
X141027781Y-106263589D01*
X140998438Y-106284907D01*
X140988520Y-106291423D01*
X140969832Y-106302475D01*
X140950450Y-106313938D01*
X140936126Y-106328262D01*
X140921094Y-106341101D01*
X140904706Y-106353008D01*
X140876525Y-106387073D01*
X140868535Y-106395853D01*
X138126792Y-109137595D01*
X138064480Y-109171621D01*
X138037697Y-109174500D01*
X134823805Y-109174500D01*
X134755684Y-109154498D01*
X134718013Y-109116940D01*
X134629822Y-108980617D01*
X134629820Y-108980614D01*
X134627014Y-108976277D01*
X134476670Y-108811051D01*
X134472619Y-108807852D01*
X134472615Y-108807848D01*
X134305414Y-108675800D01*
X134305410Y-108675798D01*
X134301359Y-108672598D01*
X134260053Y-108649796D01*
X134210084Y-108599364D01*
X134195312Y-108529921D01*
X134220428Y-108463516D01*
X134247780Y-108436909D01*
X134291603Y-108405650D01*
X134426860Y-108309173D01*
X134585096Y-108151489D01*
X134644594Y-108068689D01*
X134712435Y-107974277D01*
X134715453Y-107970077D01*
X134719611Y-107961665D01*
X134812136Y-107774453D01*
X134812137Y-107774451D01*
X134814430Y-107769811D01*
X134879370Y-107556069D01*
X134908529Y-107334590D01*
X134910156Y-107268000D01*
X134891852Y-107045361D01*
X134837431Y-106828702D01*
X134748354Y-106623840D01*
X134707599Y-106560842D01*
X134629822Y-106440617D01*
X134629820Y-106440614D01*
X134627014Y-106436277D01*
X134476670Y-106271051D01*
X134472619Y-106267852D01*
X134472615Y-106267848D01*
X134305414Y-106135800D01*
X134305410Y-106135798D01*
X134301359Y-106132598D01*
X134260053Y-106109796D01*
X134210084Y-106059364D01*
X134195312Y-105989921D01*
X134220428Y-105923516D01*
X134247780Y-105896909D01*
X134291603Y-105865650D01*
X134426860Y-105769173D01*
X134585096Y-105611489D01*
X134644594Y-105528689D01*
X134712435Y-105434277D01*
X134715453Y-105430077D01*
X134814430Y-105229811D01*
X134879370Y-105016069D01*
X134908529Y-104794590D01*
X134910156Y-104728000D01*
X134891852Y-104505361D01*
X134837431Y-104288702D01*
X134748354Y-104083840D01*
X134627014Y-103896277D01*
X134623532Y-103892450D01*
X134479798Y-103734488D01*
X134448746Y-103670642D01*
X134457141Y-103600143D01*
X134502317Y-103545375D01*
X134528761Y-103531706D01*
X134635297Y-103491767D01*
X134643705Y-103488615D01*
X134760261Y-103401261D01*
X134847615Y-103284705D01*
X134898745Y-103148316D01*
X134905500Y-103086134D01*
X134905500Y-101289866D01*
X134898745Y-101227684D01*
X134847615Y-101091295D01*
X134760261Y-100974739D01*
X134643705Y-100887385D01*
X134507316Y-100836255D01*
X134445134Y-100829500D01*
X132648866Y-100829500D01*
X132586684Y-100836255D01*
X132450295Y-100887385D01*
X132333739Y-100974739D01*
X132246385Y-101091295D01*
X132195255Y-101227684D01*
X132188500Y-101289866D01*
X132188500Y-103086134D01*
X132195255Y-103148316D01*
X132246385Y-103284705D01*
X132333739Y-103401261D01*
X132450295Y-103488615D01*
X132458704Y-103491767D01*
X132458705Y-103491768D01*
X132567451Y-103532535D01*
X132624216Y-103575176D01*
X132648916Y-103641738D01*
X132633709Y-103711087D01*
X132614316Y-103737568D01*
X132487629Y-103870138D01*
X132361743Y-104054680D01*
X132267688Y-104257305D01*
X132207989Y-104472570D01*
X132184251Y-104694695D01*
X132184548Y-104699848D01*
X132184548Y-104699851D01*
X132190011Y-104794590D01*
X132197110Y-104917715D01*
X132198247Y-104922761D01*
X132198248Y-104922767D01*
X132218119Y-105010939D01*
X132246222Y-105135639D01*
X132330266Y-105342616D01*
X132446987Y-105533088D01*
X132593250Y-105701938D01*
X132765126Y-105844632D01*
X132835595Y-105885811D01*
X132838445Y-105887476D01*
X132887169Y-105939114D01*
X132900240Y-106008897D01*
X132873509Y-106074669D01*
X132833055Y-106108027D01*
X132820607Y-106114507D01*
X132816474Y-106117610D01*
X132816471Y-106117612D01*
X132649771Y-106242774D01*
X132641965Y-106248635D01*
X132487629Y-106410138D01*
X132361743Y-106594680D01*
X132267688Y-106797305D01*
X132207989Y-107012570D01*
X132184251Y-107234695D01*
X132184548Y-107239848D01*
X132184548Y-107239851D01*
X132190011Y-107334590D01*
X132197110Y-107457715D01*
X132198247Y-107462761D01*
X132198248Y-107462767D01*
X132218119Y-107550939D01*
X132246222Y-107675639D01*
X132330266Y-107882616D01*
X132378707Y-107961665D01*
X132444291Y-108068688D01*
X132446987Y-108073088D01*
X132593250Y-108241938D01*
X132765126Y-108384632D01*
X132835595Y-108425811D01*
X132838445Y-108427476D01*
X132887169Y-108479114D01*
X132900240Y-108548897D01*
X132873509Y-108614669D01*
X132833055Y-108648027D01*
X132820607Y-108654507D01*
X132816474Y-108657610D01*
X132816471Y-108657612D01*
X132792247Y-108675800D01*
X132641965Y-108788635D01*
X132487629Y-108950138D01*
X132361743Y-109134680D01*
X132267688Y-109337305D01*
X132207989Y-109552570D01*
X132184251Y-109774695D01*
X132184548Y-109779848D01*
X132184548Y-109779851D01*
X132192068Y-109910263D01*
X132197110Y-109997715D01*
X132198247Y-110002761D01*
X132198248Y-110002767D01*
X132202907Y-110023438D01*
X132246222Y-110215639D01*
X132330266Y-110422616D01*
X132446987Y-110613088D01*
X132593250Y-110781938D01*
X132765126Y-110924632D01*
X132835595Y-110965811D01*
X132838445Y-110967476D01*
X132887169Y-111019114D01*
X132900240Y-111088897D01*
X132873509Y-111154669D01*
X132833055Y-111188027D01*
X132820607Y-111194507D01*
X132816474Y-111197610D01*
X132816471Y-111197612D01*
X132792247Y-111215800D01*
X132641965Y-111328635D01*
X132487629Y-111490138D01*
X132361743Y-111674680D01*
X132267688Y-111877305D01*
X132207989Y-112092570D01*
X132207440Y-112097704D01*
X132207440Y-112097706D01*
X132202155Y-112147162D01*
X132175027Y-112212771D01*
X132116735Y-112253300D01*
X132045785Y-112255879D01*
X131987773Y-112222868D01*
X131862405Y-112097500D01*
X131828379Y-112035188D01*
X131825500Y-112008405D01*
X131825500Y-99868083D01*
X131845502Y-99799962D01*
X131862405Y-99778988D01*
X132597988Y-99043405D01*
X132660300Y-99009379D01*
X132687083Y-99006500D01*
X135983233Y-99006500D01*
X135994416Y-99007027D01*
X136001909Y-99008702D01*
X136009835Y-99008453D01*
X136009836Y-99008453D01*
X136069986Y-99006562D01*
X136073945Y-99006500D01*
X136101856Y-99006500D01*
X136105791Y-99006003D01*
X136105856Y-99005995D01*
X136117693Y-99005062D01*
X136149951Y-99004048D01*
X136153970Y-99003922D01*
X136161889Y-99003673D01*
X136181343Y-98998021D01*
X136200700Y-98994013D01*
X136212930Y-98992468D01*
X136212931Y-98992468D01*
X136220797Y-98991474D01*
X136228168Y-98988555D01*
X136228170Y-98988555D01*
X136261912Y-98975196D01*
X136273142Y-98971351D01*
X136307983Y-98961229D01*
X136307984Y-98961229D01*
X136315593Y-98959018D01*
X136322412Y-98954985D01*
X136322417Y-98954983D01*
X136333028Y-98948707D01*
X136350776Y-98940012D01*
X136369617Y-98932552D01*
X136405387Y-98906564D01*
X136415307Y-98900048D01*
X136446535Y-98881580D01*
X136446538Y-98881578D01*
X136453362Y-98877542D01*
X136467683Y-98863221D01*
X136482717Y-98850380D01*
X136492694Y-98843131D01*
X136499107Y-98838472D01*
X136527298Y-98804395D01*
X136535288Y-98795616D01*
X138146549Y-97184355D01*
X138208861Y-97150329D01*
X138260762Y-97149979D01*
X138440597Y-97186567D01*
X138445772Y-97186757D01*
X138445774Y-97186757D01*
X138658673Y-97194564D01*
X138658677Y-97194564D01*
X138663837Y-97194753D01*
X138668957Y-97194097D01*
X138668959Y-97194097D01*
X138880288Y-97167025D01*
X138880289Y-97167025D01*
X138885416Y-97166368D01*
X138890376Y-97164880D01*
X139094429Y-97103661D01*
X139094434Y-97103659D01*
X139099384Y-97102174D01*
X139299994Y-97003896D01*
X139481860Y-96874173D01*
X139640096Y-96716489D01*
X139699594Y-96633689D01*
X139770453Y-96535077D01*
X139771640Y-96535930D01*
X139818960Y-96492362D01*
X139888897Y-96480145D01*
X139954338Y-96507678D01*
X139982166Y-96539511D01*
X140039694Y-96633388D01*
X140045777Y-96641699D01*
X140185213Y-96802667D01*
X140192580Y-96809883D01*
X140356434Y-96945916D01*
X140364881Y-96951831D01*
X140548756Y-97059279D01*
X140558042Y-97063729D01*
X140757001Y-97139703D01*
X140766899Y-97142579D01*
X140870250Y-97163606D01*
X140884299Y-97162410D01*
X140888000Y-97152065D01*
X140888000Y-95705000D01*
X140908002Y-95636879D01*
X140961658Y-95590386D01*
X141014000Y-95579000D01*
X141270000Y-95579000D01*
X141338121Y-95599002D01*
G37*
G04 #@! TD.AperFunction*
G04 #@! TA.AperFunction,Conductor*
G36*
X154527888Y-97091848D02*
G01*
X154567878Y-97150511D01*
X154573989Y-97189276D01*
X154573989Y-98184722D01*
X154573462Y-98195905D01*
X154571787Y-98203398D01*
X154572036Y-98211324D01*
X154572036Y-98211325D01*
X154573927Y-98271475D01*
X154573989Y-98275434D01*
X154573989Y-98303345D01*
X154574486Y-98307279D01*
X154574486Y-98307280D01*
X154574494Y-98307345D01*
X154575427Y-98319182D01*
X154576816Y-98363378D01*
X154582467Y-98382828D01*
X154586476Y-98402189D01*
X154589015Y-98422286D01*
X154591934Y-98429657D01*
X154591934Y-98429659D01*
X154605293Y-98463401D01*
X154609138Y-98474631D01*
X154621471Y-98517082D01*
X154625504Y-98523901D01*
X154625506Y-98523906D01*
X154631782Y-98534517D01*
X154640477Y-98552265D01*
X154647937Y-98571106D01*
X154652599Y-98577522D01*
X154652599Y-98577523D01*
X154673925Y-98606876D01*
X154680441Y-98616796D01*
X154702947Y-98654851D01*
X154717268Y-98669172D01*
X154730108Y-98684205D01*
X154742017Y-98700596D01*
X154748123Y-98705647D01*
X154776094Y-98728787D01*
X154784873Y-98736777D01*
X156088343Y-100040247D01*
X156095887Y-100048537D01*
X156100000Y-100055018D01*
X156105777Y-100060443D01*
X156149667Y-100101658D01*
X156152509Y-100104413D01*
X156172230Y-100124134D01*
X156175425Y-100126612D01*
X156184447Y-100134318D01*
X156216679Y-100164586D01*
X156223628Y-100168406D01*
X156234432Y-100174346D01*
X156250956Y-100185199D01*
X156266959Y-100197613D01*
X156307543Y-100215176D01*
X156318173Y-100220383D01*
X156356940Y-100241695D01*
X156364617Y-100243666D01*
X156364622Y-100243668D01*
X156376558Y-100246732D01*
X156395266Y-100253137D01*
X156413855Y-100261181D01*
X156421683Y-100262421D01*
X156421690Y-100262423D01*
X156457524Y-100268099D01*
X156469144Y-100270505D01*
X156504289Y-100279528D01*
X156511970Y-100281500D01*
X156532224Y-100281500D01*
X156551934Y-100283051D01*
X156571943Y-100286220D01*
X156579835Y-100285474D01*
X156615961Y-100282059D01*
X156627819Y-100281500D01*
X166437406Y-100281500D01*
X166505527Y-100301502D01*
X166526501Y-100318405D01*
X166852057Y-100643961D01*
X166886083Y-100706273D01*
X166881018Y-100777088D01*
X166838471Y-100833924D01*
X166776708Y-100858304D01*
X166775540Y-100858432D01*
X166771000Y-100872989D01*
X166771000Y-101915885D01*
X166775475Y-101931124D01*
X166776865Y-101932329D01*
X166784548Y-101934000D01*
X167835344Y-101934000D01*
X167848875Y-101930027D01*
X167849412Y-101926291D01*
X167878905Y-101861710D01*
X167938631Y-101823327D01*
X168009628Y-101823327D01*
X168063224Y-101855128D01*
X168621595Y-102413499D01*
X168655621Y-102475811D01*
X168658500Y-102502594D01*
X168658500Y-109073405D01*
X168638498Y-109141526D01*
X168621595Y-109162501D01*
X168079823Y-109704272D01*
X168017511Y-109738297D01*
X167946695Y-109733232D01*
X167889860Y-109690685D01*
X167865152Y-109625500D01*
X167864320Y-109615378D01*
X167861852Y-109585361D01*
X167807431Y-109368702D01*
X167718354Y-109163840D01*
X167597014Y-108976277D01*
X167446670Y-108811051D01*
X167442619Y-108807852D01*
X167442615Y-108807848D01*
X167275414Y-108675800D01*
X167275410Y-108675798D01*
X167271359Y-108672598D01*
X167230053Y-108649796D01*
X167180084Y-108599364D01*
X167165312Y-108529921D01*
X167190428Y-108463516D01*
X167217780Y-108436909D01*
X167261603Y-108405650D01*
X167396860Y-108309173D01*
X167555096Y-108151489D01*
X167614594Y-108068689D01*
X167682435Y-107974277D01*
X167685453Y-107970077D01*
X167689611Y-107961665D01*
X167782136Y-107774453D01*
X167782137Y-107774451D01*
X167784430Y-107769811D01*
X167849370Y-107556069D01*
X167878529Y-107334590D01*
X167880156Y-107268000D01*
X167861852Y-107045361D01*
X167807431Y-106828702D01*
X167718354Y-106623840D01*
X167677599Y-106560842D01*
X167599822Y-106440617D01*
X167599820Y-106440614D01*
X167597014Y-106436277D01*
X167446670Y-106271051D01*
X167442619Y-106267852D01*
X167442615Y-106267848D01*
X167275414Y-106135800D01*
X167275410Y-106135798D01*
X167271359Y-106132598D01*
X167230053Y-106109796D01*
X167180084Y-106059364D01*
X167165312Y-105989921D01*
X167190428Y-105923516D01*
X167217780Y-105896909D01*
X167261603Y-105865650D01*
X167396860Y-105769173D01*
X167555096Y-105611489D01*
X167614594Y-105528689D01*
X167682435Y-105434277D01*
X167685453Y-105430077D01*
X167784430Y-105229811D01*
X167849370Y-105016069D01*
X167878529Y-104794590D01*
X167880156Y-104728000D01*
X167861852Y-104505361D01*
X167807431Y-104288702D01*
X167718354Y-104083840D01*
X167597014Y-103896277D01*
X167446670Y-103731051D01*
X167442619Y-103727852D01*
X167442615Y-103727848D01*
X167275414Y-103595800D01*
X167275410Y-103595798D01*
X167271359Y-103592598D01*
X167229569Y-103569529D01*
X167179598Y-103519097D01*
X167164826Y-103449654D01*
X167189942Y-103383248D01*
X167217294Y-103356641D01*
X167392328Y-103231792D01*
X167400200Y-103225139D01*
X167551052Y-103074812D01*
X167557730Y-103066965D01*
X167682003Y-102894020D01*
X167687313Y-102885183D01*
X167781670Y-102694267D01*
X167785469Y-102684672D01*
X167847377Y-102480910D01*
X167849555Y-102470837D01*
X167850986Y-102459962D01*
X167848775Y-102445778D01*
X167835617Y-102442000D01*
X165200225Y-102442000D01*
X165186694Y-102445973D01*
X165185257Y-102455966D01*
X165215565Y-102590446D01*
X165218645Y-102600275D01*
X165298770Y-102797603D01*
X165303413Y-102806794D01*
X165414694Y-102988388D01*
X165420777Y-102996699D01*
X165560213Y-103157667D01*
X165567580Y-103164883D01*
X165731434Y-103300916D01*
X165739881Y-103306831D01*
X165808969Y-103347203D01*
X165857693Y-103398842D01*
X165870764Y-103468625D01*
X165844033Y-103534396D01*
X165803584Y-103567752D01*
X165790607Y-103574507D01*
X165786474Y-103577610D01*
X165786471Y-103577612D01*
X165662567Y-103670642D01*
X165611965Y-103708635D01*
X165457629Y-103870138D01*
X165331743Y-104054680D01*
X165237688Y-104257305D01*
X165177989Y-104472570D01*
X165154251Y-104694695D01*
X165154548Y-104699848D01*
X165154548Y-104699851D01*
X165160011Y-104794590D01*
X165167110Y-104917715D01*
X165168247Y-104922761D01*
X165168248Y-104922767D01*
X165188119Y-105010939D01*
X165216222Y-105135639D01*
X165300266Y-105342616D01*
X165416987Y-105533088D01*
X165563250Y-105701938D01*
X165735126Y-105844632D01*
X165805595Y-105885811D01*
X165808445Y-105887476D01*
X165857169Y-105939114D01*
X165870240Y-106008897D01*
X165843509Y-106074669D01*
X165803055Y-106108027D01*
X165790607Y-106114507D01*
X165786474Y-106117610D01*
X165786471Y-106117612D01*
X165619771Y-106242774D01*
X165611965Y-106248635D01*
X165457629Y-106410138D01*
X165454715Y-106414410D01*
X165454714Y-106414411D01*
X165342095Y-106579504D01*
X165287184Y-106624507D01*
X165238007Y-106634500D01*
X145725594Y-106634500D01*
X145657473Y-106614498D01*
X145610980Y-106560842D01*
X145600876Y-106490568D01*
X145630370Y-106425988D01*
X145636499Y-106419405D01*
X149161885Y-102894020D01*
X150133722Y-101922183D01*
X165181389Y-101922183D01*
X165182912Y-101930607D01*
X165195292Y-101934000D01*
X166244885Y-101934000D01*
X166260124Y-101929525D01*
X166261329Y-101928135D01*
X166263000Y-101920452D01*
X166263000Y-100871102D01*
X166259082Y-100857758D01*
X166244806Y-100855771D01*
X166206324Y-100861660D01*
X166196288Y-100864051D01*
X165993868Y-100930212D01*
X165984359Y-100934209D01*
X165795463Y-101032542D01*
X165786738Y-101038036D01*
X165616433Y-101165905D01*
X165608726Y-101172748D01*
X165461590Y-101326717D01*
X165455104Y-101334727D01*
X165335098Y-101510649D01*
X165330000Y-101519623D01*
X165240338Y-101712783D01*
X165236775Y-101722470D01*
X165181389Y-101922183D01*
X150133722Y-101922183D01*
X152868764Y-99187141D01*
X152877050Y-99179601D01*
X152883529Y-99175489D01*
X152930155Y-99125837D01*
X152932909Y-99122996D01*
X152952646Y-99103259D01*
X152955126Y-99100062D01*
X152962831Y-99091040D01*
X152987670Y-99064589D01*
X152993097Y-99058810D01*
X152996916Y-99051864D01*
X152996918Y-99051861D01*
X153002859Y-99041055D01*
X153013710Y-99024536D01*
X153014070Y-99024072D01*
X153026125Y-99008530D01*
X153029270Y-99001261D01*
X153029273Y-99001257D01*
X153043685Y-98967952D01*
X153048902Y-98957301D01*
X153070206Y-98918549D01*
X153075244Y-98898926D01*
X153081648Y-98880223D01*
X153086544Y-98868909D01*
X153086544Y-98868908D01*
X153089692Y-98861634D01*
X153090931Y-98853811D01*
X153090934Y-98853801D01*
X153096610Y-98817965D01*
X153099016Y-98806345D01*
X153108039Y-98771200D01*
X153108039Y-98771199D01*
X153110011Y-98763519D01*
X153110011Y-98743265D01*
X153111562Y-98723554D01*
X153113491Y-98711375D01*
X153114731Y-98703546D01*
X153110570Y-98659527D01*
X153110011Y-98647670D01*
X153110011Y-97190725D01*
X153130013Y-97122604D01*
X153183669Y-97076111D01*
X153253943Y-97066007D01*
X153280961Y-97073015D01*
X153461692Y-97142030D01*
X153466760Y-97143061D01*
X153466763Y-97143062D01*
X153561862Y-97162410D01*
X153680597Y-97186567D01*
X153685772Y-97186757D01*
X153685774Y-97186757D01*
X153898673Y-97194564D01*
X153898677Y-97194564D01*
X153903837Y-97194753D01*
X153908957Y-97194097D01*
X153908959Y-97194097D01*
X154120288Y-97167025D01*
X154120289Y-97167025D01*
X154125416Y-97166368D01*
X154130376Y-97164880D01*
X154334429Y-97103661D01*
X154334434Y-97103659D01*
X154339384Y-97102174D01*
X154392559Y-97076124D01*
X154462531Y-97064118D01*
X154527888Y-97091848D01*
G37*
G04 #@! TD.AperFunction*
M02*
