M48
; DRILL file {KiCad (6.0.4)} date Sat Apr 30 09:59:56 2022
; FORMAT={-:-/ absolute / inch / decimal}
; #@! TF.CreationDate,2022-04-30T09:59:56+01:00
; #@! TF.GenerationSoftware,Kicad,Pcbnew,(6.0.4)
; #@! TF.FileFunction,MixedPlating,1,2
FMAT,2
INCH
; #@! TA.AperFunction,Plated,PTH,ComponentDrill
T1C0.0394
; #@! TA.AperFunction,NonPlated,NPTH,ComponentDrill
T2C0.1063
%
G90
G05
T1
X4.9568Y-3.673
X4.9568Y-3.773
X5.0568Y-3.673
X5.0568Y-3.773
X5.1568Y-3.673
X5.1568Y-3.773
X5.2568Y-3.673
X5.2568Y-3.773
X5.2578Y-4.0231
X5.2578Y-4.1231
X5.2578Y-4.2231
X5.2578Y-4.3231
X5.2578Y-4.4231
X5.2578Y-4.5231
X5.2578Y-4.6231
X5.3568Y-3.673
X5.3568Y-3.773
X5.4568Y-3.673
X5.4568Y-3.773
X5.5568Y-3.673
X5.5568Y-3.773
X5.6568Y-3.673
X5.6568Y-3.773
X5.7568Y-3.673
X5.7568Y-3.773
X5.8568Y-3.673
X5.8568Y-3.773
X5.9568Y-3.673
X5.9568Y-3.773
X6.0568Y-3.673
X6.0568Y-3.773
X6.1568Y-3.673
X6.1568Y-3.773
X6.2568Y-3.673
X6.2568Y-3.773
X6.3568Y-3.673
X6.3568Y-3.773
X6.4568Y-3.673
X6.4568Y-3.773
X6.5558Y-4.0231
X6.5558Y-4.1231
X6.5558Y-4.2231
X6.5558Y-4.3231
X6.5558Y-4.4231
X6.5558Y-4.5231
X6.5558Y-4.6231
X6.5568Y-3.673
X6.5568Y-3.773
X6.6568Y-3.673
X6.6568Y-3.773
X6.7568Y-3.673
X6.7568Y-3.773
X6.8568Y-3.673
X6.8568Y-3.773
T2
X4.765Y-3.7231
X4.765Y-4.6287
X7.0485Y-3.7231
X7.0485Y-4.6287
T0
M30
