G04 #@! TF.GenerationSoftware,KiCad,Pcbnew,(6.0.4)*
G04 #@! TF.CreationDate,2022-04-30T09:59:48+01:00*
G04 #@! TF.ProjectId,ANI_mirror_mask,414e495f-6d69-4727-926f-725f6d61736b,1.0*
G04 #@! TF.SameCoordinates,Original*
G04 #@! TF.FileFunction,Legend,Bot*
G04 #@! TF.FilePolarity,Positive*
%FSLAX46Y46*%
G04 Gerber Fmt 4.6, Leading zero omitted, Abs format (unit mm)*
G04 Created by KiCad (PCBNEW (6.0.4)) date 2022-04-30 09:59:48*
%MOMM*%
%LPD*%
G01*
G04 APERTURE LIST*
%ADD10C,0.150000*%
%ADD11C,0.120000*%
G04 APERTURE END LIST*
D10*
X148864857Y-98825380D02*
X148864857Y-97825380D01*
X148483904Y-97825380D01*
X148388666Y-97873000D01*
X148341047Y-97920619D01*
X148293428Y-98015857D01*
X148293428Y-98158714D01*
X148341047Y-98253952D01*
X148388666Y-98301571D01*
X148483904Y-98349190D01*
X148864857Y-98349190D01*
X147864857Y-98825380D02*
X147864857Y-98158714D01*
X147864857Y-97825380D02*
X147912476Y-97873000D01*
X147864857Y-97920619D01*
X147817238Y-97873000D01*
X147864857Y-97825380D01*
X147864857Y-97920619D01*
X146102952Y-97873000D02*
X146198190Y-97825380D01*
X146341047Y-97825380D01*
X146483904Y-97873000D01*
X146579142Y-97968238D01*
X146626761Y-98063476D01*
X146674380Y-98253952D01*
X146674380Y-98396809D01*
X146626761Y-98587285D01*
X146579142Y-98682523D01*
X146483904Y-98777761D01*
X146341047Y-98825380D01*
X146245809Y-98825380D01*
X146102952Y-98777761D01*
X146055333Y-98730142D01*
X146055333Y-98396809D01*
X146245809Y-98396809D01*
X145626761Y-98825380D02*
X145626761Y-97825380D01*
X145245809Y-97825380D01*
X145150571Y-97873000D01*
X145102952Y-97920619D01*
X145055333Y-98015857D01*
X145055333Y-98158714D01*
X145102952Y-98253952D01*
X145150571Y-98301571D01*
X145245809Y-98349190D01*
X145626761Y-98349190D01*
X144626761Y-98825380D02*
X144626761Y-97825380D01*
X143960095Y-97825380D02*
X143769619Y-97825380D01*
X143674380Y-97873000D01*
X143579142Y-97968238D01*
X143531523Y-98158714D01*
X143531523Y-98492047D01*
X143579142Y-98682523D01*
X143674380Y-98777761D01*
X143769619Y-98825380D01*
X143960095Y-98825380D01*
X144055333Y-98777761D01*
X144150571Y-98682523D01*
X144198190Y-98492047D01*
X144198190Y-98158714D01*
X144150571Y-97968238D01*
X144055333Y-97873000D01*
X143960095Y-97825380D01*
D11*
X175492000Y-91963000D02*
X175492000Y-97163000D01*
X124572000Y-97163000D02*
X175492000Y-97163000D01*
X124572000Y-91963000D02*
X124572000Y-93293000D01*
X124572000Y-94563000D02*
X124572000Y-97163000D01*
X125902000Y-91963000D02*
X124572000Y-91963000D01*
X127172000Y-91963000D02*
X127172000Y-94563000D01*
X127172000Y-91963000D02*
X175492000Y-91963000D01*
X127172000Y-94563000D02*
X124572000Y-94563000D01*
M02*
