G04 #@! TF.GenerationSoftware,KiCad,Pcbnew,(6.0.4)*
G04 #@! TF.CreationDate,2022-04-30T09:59:48+01:00*
G04 #@! TF.ProjectId,ANI_mirror_mask,414e495f-6d69-4727-926f-725f6d61736b,1.0*
G04 #@! TF.SameCoordinates,Original*
G04 #@! TF.FileFunction,Legend,Top*
G04 #@! TF.FilePolarity,Positive*
%FSLAX46Y46*%
G04 Gerber Fmt 4.6, Leading zero omitted, Abs format (unit mm)*
G04 Created by KiCad (PCBNEW (6.0.4)) date 2022-04-30 09:59:48*
%MOMM*%
%LPD*%
G01*
G04 APERTURE LIST*
%ADD10C,0.150000*%
%ADD11C,0.120000*%
G04 APERTURE END LIST*
D10*
X131213666Y-99870380D02*
X130737476Y-99870380D01*
X130737476Y-98870380D01*
X131927952Y-99822761D02*
X131832714Y-99870380D01*
X131642238Y-99870380D01*
X131547000Y-99822761D01*
X131499380Y-99727523D01*
X131499380Y-99346571D01*
X131547000Y-99251333D01*
X131642238Y-99203714D01*
X131832714Y-99203714D01*
X131927952Y-99251333D01*
X131975571Y-99346571D01*
X131975571Y-99441809D01*
X131499380Y-99537047D01*
X132261285Y-99203714D02*
X132642238Y-99203714D01*
X132404142Y-99870380D02*
X132404142Y-99013238D01*
X132451761Y-98918000D01*
X132547000Y-98870380D01*
X132642238Y-98870380D01*
X132832714Y-99203714D02*
X133213666Y-99203714D01*
X132975571Y-98870380D02*
X132975571Y-99727523D01*
X133023190Y-99822761D01*
X133118428Y-99870380D01*
X133213666Y-99870380D01*
X134308904Y-99346571D02*
X134642238Y-99346571D01*
X134785095Y-99870380D02*
X134308904Y-99870380D01*
X134308904Y-98870380D01*
X134785095Y-98870380D01*
X135118428Y-99203714D02*
X135356523Y-99870380D01*
X135594619Y-99203714D02*
X135356523Y-99870380D01*
X135261285Y-100108476D01*
X135213666Y-100156095D01*
X135118428Y-100203714D01*
X136356523Y-99822761D02*
X136261285Y-99870380D01*
X136070809Y-99870380D01*
X135975571Y-99822761D01*
X135927952Y-99727523D01*
X135927952Y-99346571D01*
X135975571Y-99251333D01*
X136070809Y-99203714D01*
X136261285Y-99203714D01*
X136356523Y-99251333D01*
X136404142Y-99346571D01*
X136404142Y-99441809D01*
X135927952Y-99537047D01*
X163755095Y-100100380D02*
X163421761Y-99624190D01*
X163183666Y-100100380D02*
X163183666Y-99100380D01*
X163564619Y-99100380D01*
X163659857Y-99148000D01*
X163707476Y-99195619D01*
X163755095Y-99290857D01*
X163755095Y-99433714D01*
X163707476Y-99528952D01*
X163659857Y-99576571D01*
X163564619Y-99624190D01*
X163183666Y-99624190D01*
X164183666Y-100100380D02*
X164183666Y-99433714D01*
X164183666Y-99100380D02*
X164136047Y-99148000D01*
X164183666Y-99195619D01*
X164231285Y-99148000D01*
X164183666Y-99100380D01*
X164183666Y-99195619D01*
X165088428Y-99433714D02*
X165088428Y-100243238D01*
X165040809Y-100338476D01*
X164993190Y-100386095D01*
X164897952Y-100433714D01*
X164755095Y-100433714D01*
X164659857Y-100386095D01*
X165088428Y-100052761D02*
X164993190Y-100100380D01*
X164802714Y-100100380D01*
X164707476Y-100052761D01*
X164659857Y-100005142D01*
X164612238Y-99909904D01*
X164612238Y-99624190D01*
X164659857Y-99528952D01*
X164707476Y-99481333D01*
X164802714Y-99433714D01*
X164993190Y-99433714D01*
X165088428Y-99481333D01*
X165564619Y-100100380D02*
X165564619Y-99100380D01*
X165993190Y-100100380D02*
X165993190Y-99576571D01*
X165945571Y-99481333D01*
X165850333Y-99433714D01*
X165707476Y-99433714D01*
X165612238Y-99481333D01*
X165564619Y-99528952D01*
X166326523Y-99433714D02*
X166707476Y-99433714D01*
X166469380Y-99100380D02*
X166469380Y-99957523D01*
X166517000Y-100052761D01*
X166612238Y-100100380D01*
X166707476Y-100100380D01*
X167802714Y-99576571D02*
X168136047Y-99576571D01*
X168278904Y-100100380D02*
X167802714Y-100100380D01*
X167802714Y-99100380D01*
X168278904Y-99100380D01*
X168612238Y-99433714D02*
X168850333Y-100100380D01*
X169088428Y-99433714D02*
X168850333Y-100100380D01*
X168755095Y-100338476D01*
X168707476Y-100386095D01*
X168612238Y-100433714D01*
X169850333Y-100052761D02*
X169755095Y-100100380D01*
X169564619Y-100100380D01*
X169469380Y-100052761D01*
X169421761Y-99957523D01*
X169421761Y-99576571D01*
X169469380Y-99481333D01*
X169564619Y-99433714D01*
X169755095Y-99433714D01*
X169850333Y-99481333D01*
X169897952Y-99576571D01*
X169897952Y-99671809D01*
X169421761Y-99767047D01*
D11*
X134877000Y-100858000D02*
X134877000Y-102188000D01*
X133547000Y-100858000D02*
X134877000Y-100858000D01*
X132217000Y-118758000D02*
X134877000Y-118758000D01*
X132217000Y-103458000D02*
X132217000Y-118758000D01*
X134877000Y-103458000D02*
X134877000Y-118758000D01*
X132217000Y-103458000D02*
X134877000Y-103458000D01*
X167847000Y-116158000D02*
X165187000Y-116158000D01*
X165187000Y-116158000D02*
X165187000Y-100858000D01*
X166517000Y-118758000D02*
X165187000Y-118758000D01*
X167847000Y-100858000D02*
X165187000Y-100858000D01*
X165187000Y-118758000D02*
X165187000Y-117428000D01*
X167847000Y-116158000D02*
X167847000Y-100858000D01*
M02*
